<?xml version="1.0" standalone="no"?>
<!DOCTYPE svg PUBLIC "-//W3C//DTD SVG 1.1//EN" "http://www.w3.org/Graphics/SVG/1.1/DTD/svg11.dtd" >
<svg>
<metadata>
Created by FontForge 20110222 at Thu Jun 13 02:12:13 2013
 By Orthosie Webhosting
HTF Knockout   1990-9 The Hoefler Type Foundry, Inc. http://www.typography.com
</metadata>
<defs>
<font id="KnockoutMedium" horiz-adv-x="269" >
  <font-face 
    font-family="KnockoutMedium"
    font-weight="500"
    font-stretch="normal"
    units-per-em="1000"
    panose-1="2 0 6 8 2 0 0 2 0 4"
    ascent="800"
    descent="-200"
    x-height="468"
    cap-height="666"
    bbox="-223 -208 868 819"
    underline-thickness="38"
    underline-position="-86"
    unicode-range="U+0020-FB02"
  />
<missing-glyph horiz-adv-x="500" 
 />
    <glyph glyph-name=".notdef" horiz-adv-x="500" 
 />
    <glyph glyph-name=".null" horiz-adv-x="0" 
 />
    <glyph glyph-name="nonmarkingreturn" horiz-adv-x="115" 
 />
    <glyph glyph-name="space" unicode=" " horiz-adv-x="115" 
 />
    <glyph glyph-name="exclam" unicode="!" horiz-adv-x="139" 
d="M103 377v289h-67v-289l24 -210h20zM100 0v97h-61v-97h61z" />
    <glyph glyph-name="quotedbl" unicode="&#x22;" horiz-adv-x="177" 
d="M181 666h-54l-35 -186h37zM94 666h-54l-26 -186h36z" />
    <glyph glyph-name="numbersign" unicode="#" horiz-adv-x="378" 
d="M375 430v40h-84l25 196h-42l-25 -196h-81l25 196h-42l-26 -196h-100v-40h94l-25 -194h-92v-40h86l-26 -196h42l26 196h81l-26 -196h42l26 196h100v40h-94l26 194h90zM243 430l-26 -194h-81l25 194h82z" />
    <glyph glyph-name="dollar" unicode="$" horiz-adv-x="303" 
d="M122 671q-44 -11 -64.5 -49t-20.5 -92q0 -29 9 -59t23 -59.5t31 -56.5t34 -49q33 -49 54 -92.5t21 -93.5q0 -31 -14.5 -50t-43.5 -19q-26 0 -40.5 19.5t-14.5 53.5v73h-67v-75q0 -51 24.5 -85.5t68.5 -43.5v-68h60v68q19 4 35.5 14.5t29.5 27.5t20.5 41.5t7.5 56.5
t-8 61.5t-21.5 57.5t-31 55t-36.5 54q-17 27 -30.5 50t-23.5 45t-15 44.5t-5 48.5q0 30 14 46.5t40 16.5t38.5 -19.5t12.5 -53.5v-74h65v79q0 52 -24.5 87t-67.5 43v66h-60v-69z" />
    <glyph glyph-name="percent" unicode="%" horiz-adv-x="406" 
d="M385 73v166q0 41 -20 63.5t-50 22.5t-50 -22.5t-20 -63.5v-166q0 -40 20 -63t50 -23t50 23t20 63zM340 59q0 -11 -7 -19t-18 -8t-18 8t-7 19v195q0 11 7 18.5t18 7.5t18 -7.5t7 -18.5v-195zM380 664l-27 20l-324 -684l26 -20zM164 425v166q0 40 -20 62.5t-51 22.5
q-30 0 -50 -22.5t-20 -62.5v-166q0 -40 20 -63t50 -23q31 0 51 23t20 63zM119 411q0 -12 -7.5 -19.5t-18.5 -7.5t-18 7.5t-7 19.5v195q0 11 7 18.5t18 7.5t18.5 -7.5t7.5 -18.5v-195z" />
    <glyph glyph-name="ampersand" unicode="&#x26;" horiz-adv-x="385" 
d="M380 83v61h-46v-59q0 -31 -24 -31q-13 0 -23 8.5t-17 22.5q15 25 28 57.5t22.5 67t15 68t6.5 60.5h-57q0 -45 -13.5 -96t-34.5 -96q-6 14 -12.5 37.5t-12.5 50.5t-11.5 54.5t-9.5 49.5q44 45 72 94.5t28 106.5q0 28 -5.5 53t-16.5 44t-28.5 29.5t-42.5 10.5t-45 -11.5
t-34 -31.5t-21.5 -47.5t-7.5 -60.5q0 -43 9 -86.5t20 -79.5q-23 -23 -41.5 -46t-31.5 -48.5t-19.5 -54.5t-6.5 -63t8.5 -63t24.5 -50t38 -32.5t49 -11.5q56 0 94 45q31 -45 76 -45q70 0 70 93zM229 534q0 -29 -14 -66t-43 -69q-8 37 -13 70t-5 57q0 43 10.5 61.5t30.5 18.5
q19 0 26.5 -18t7.5 -54zM198 79q-15 -24 -43 -24q-30 0 -48.5 25t-18.5 79q0 36 13.5 69.5t34.5 59.5q5 -27 12 -57t15.5 -58t17 -53t17.5 -41z" />
    <glyph glyph-name="quotesingle" unicode="'" horiz-adv-x="133" 
d="M126 666h-65l-35 -186h40z" />
    <glyph glyph-name="parenleft" unicode="(" horiz-adv-x="225" 
d="M218 -114q-21 28 -37.5 64t-28.5 85.5t-18.5 116t-6.5 155.5q0 90 6.5 156.5t18.5 116t28.5 85t37.5 64.5l-18 17q-31 -33 -56 -74t-43 -94t-27.5 -120t-9.5 -151t9.5 -151t27.5 -120t43 -93.5t56 -73.5z" />
    <glyph glyph-name="parenright" unicode=")" horiz-adv-x="225" 
d="M161 307q0 84 -9.5 151t-27.5 120t-43 94t-56 74l-19 -17q21 -29 38 -64.5t28.5 -85t18 -116t6.5 -156.5q0 -89 -6.5 -155.5t-18 -116t-28.5 -85.5t-38 -64l19 -17q31 33 56 73.5t43 93.5t27.5 120t9.5 151z" />
    <glyph glyph-name="asterisk" unicode="*" horiz-adv-x="222" 
d="M206 517q2 5 -0.5 7.5t-5.5 4.5q-11 6 -28.5 14.5t-36.5 15.5q19 6 37 15t28 15q3 2 5.5 4.5t0.5 6.5l-11 19q-2 4 -6 3.5t-7 -2.5q-11 -6 -27.5 -17t-30.5 -24q4 19 5.5 39t1.5 32q0 4 -1.5 7.5t-5.5 3.5h-25q-3 0 -5 -3.5t-2 -7.5q0 -11 2 -31.5t5 -39.5
q-15 13 -30.5 23.5t-26.5 17.5q-10 4 -14 -1l-11 -20q-2 -5 6 -11q10 -5 28.5 -14.5t37.5 -15.5q-20 -6 -37 -14.5t-28 -14.5q-3 -2 -5.5 -5t-0.5 -7l11 -19q2 -3 6 -3t7 2q10 5 27 17t31 25q-4 -20 -5.5 -39t-1.5 -32q0 -4 2 -7.5t5 -3.5h23q5 0 6 3.5t1 7.5q0 12 -1 31.5
t-6 39.5q15 -13 31.5 -24.5t26.5 -17.5q10 -4 14 1z" />
    <glyph glyph-name="plus" unicode="+" horiz-adv-x="264" 
d="M234 310v55h-74v81h-55v-81h-75v-55h75v-82h55v82h74z" />
    <glyph glyph-name="comma" unicode="," horiz-adv-x="121" 
d="M91 10v90h-60v-100h27q0 -55 -33 -55v-21q36 0 51 24t15 62z" />
    <glyph glyph-name="hyphen" unicode="-" horiz-adv-x="175" 
d="M161 285v60h-147v-60h147z" />
    <glyph glyph-name="period" unicode="." horiz-adv-x="121" 
d="M91 0v100h-60v-100h60z" />
    <glyph glyph-name="slash" unicode="/" horiz-adv-x="205" 
d="M214 729h-44l-183 -793h45z" />
    <glyph glyph-name="zero" unicode="0" horiz-adv-x="314" 
d="M279 122v422q0 60 -33.5 96t-88.5 36q-54 0 -88 -36t-34 -96v-422q0 -60 34 -96t88 -36q55 0 88.5 36t33.5 96zM211 108q0 -22 -15 -37.5t-39 -15.5t-39 15.5t-15 37.5v450q0 21 15 37t39 16t39 -16t15 -37v-450z" />
    <glyph glyph-name="one" unicode="1" horiz-adv-x="166" 
d="M117 0v666h-33q0 -14 -7.5 -25t-27.5 -11v-630h68z" />
    <glyph glyph-name="two" unicode="2" horiz-adv-x="267" 
d="M252 529q0 67 -27 107t-90 40q-27 0 -48 -10.5t-34.5 -28.5t-20.5 -41.5t-7 -48.5v-90h58v95q0 28 14.5 44t38.5 16q54 0 54 -68q0 -29 -4 -54t-13 -50.5t-22.5 -53t-31.5 -60.5q-33 -66 -53 -111.5t-31.5 -79t-15.5 -59t-4 -51.5v-25h231v67h-160q0 33 18 84t60 130
q39 59 63.5 122t24.5 126z" />
    <glyph glyph-name="three" unicode="3" horiz-adv-x="277" 
d="M249 110v158q0 27 -14 44.5t-38 25.5q24 8 38 26.5t14 45.5v146q0 53 -30 86.5t-82 33.5q-59 0 -85 -34t-26 -85v-85h59v83q0 26 11 40.5t37 14.5t37.5 -14t11.5 -39v-158q0 -14 -7.5 -23.5t-27.5 -9.5h-43v-58h43q20 0 27.5 -9.5t7.5 -23.5v-169q0 -50 -49 -50
q-26 0 -37 13.5t-11 39.5v84h-59v-85q0 -51 27 -84.5t84 -33.5q52 0 82 34.5t30 85.5z" />
    <glyph glyph-name="four" unicode="4" horiz-adv-x="266" 
d="M257 138v61h-39v467h-59l-150 -474v-54h146v-138h63v138h39zM155 199h-81l81 270v-270z" />
    <glyph glyph-name="five" unicode="5" horiz-adv-x="277" 
d="M259 666h-215l-14 -335l61 -9q4 23 17.5 40.5t38.5 17.5q19 0 30 -12t11 -35v-223q0 -26 -13.5 -40t-36.5 -14t-35.5 15t-12.5 40v78h-58v-81q0 -23 6.5 -44.5t19.5 -38t33 -26t47 -9.5q55 0 86 34t31 88v227q0 41 -22 67.5t-58 26.5q-30 0 -50 -10.5t-31 -28.5l9 205
h101q14 0 24 2t16.5 8.5t10 20t4.5 36.5z" />
    <glyph glyph-name="six" unicode="6" horiz-adv-x="297" 
d="M270 116v194q0 40 -23 67t-63 27q-31 0 -51 -11t-34 -28v189q0 26 13 41t39 15q53 0 53 -55v-80h58v82q0 23 -7 44.5t-21 38t-34.5 26.5t-47.5 10q-55 0 -87 -36t-32 -93v-431q0 -56 31.5 -91t86.5 -35q54 0 86.5 35t32.5 91zM203 105q0 -21 -14 -35t-38 -14t-38 14.5
t-14 37.5v193q0 20 13.5 34t39.5 14t38.5 -14t12.5 -34v-196z" />
    <glyph glyph-name="seven" unicode="7" horiz-adv-x="260" 
d="M252 624v42h-235v-67h165q-24 -71 -47 -146t-41.5 -151.5t-31.5 -153t-18 -148.5h74q2 75 11 143t25.5 140.5t41 155t56.5 185.5z" />
    <glyph glyph-name="eight" unicode="8" horiz-adv-x="298" 
d="M267 110v140q0 32 -13 53.5t-32 32.5q19 11 31.5 32.5t12.5 53.5v134q0 53 -31 86.5t-85 33.5q-55 0 -86 -33.5t-31 -86.5v-134q0 -32 12 -53.5t32 -32.5q-20 -11 -32.5 -32.5t-12.5 -53.5v-140q0 -53 31.5 -86.5t86.5 -33.5q54 0 85.5 33.5t31.5 86.5zM202 410
q0 -20 -13 -35t-39 -15q-27 0 -40 15t-13 35v147q0 25 14.5 39t38.5 14q23 0 37.5 -14t14.5 -39v-147zM203 109q0 -25 -15 -39t-38 -14q-24 0 -39 14t-15 39v153q0 19 13.5 34t40.5 15q26 0 39.5 -15t13.5 -34v-153z" />
    <glyph glyph-name="nine" unicode="9" horiz-adv-x="301" 
d="M268 117v431q0 57 -31 92.5t-87 35.5q-55 0 -86 -35.5t-31 -91.5v-197q0 -41 22.5 -68.5t63.5 -27.5q32 0 50.5 11t32.5 28v-185q0 -24 -13 -39t-40 -15q-26 0 -41.5 14t-15.5 40v76h-59v-79q0 -48 30.5 -82.5t84.5 -34.5q55 0 87.5 35t32.5 92zM202 360q0 -20 -13.5 -34
t-38.5 -14q-26 0 -39 14t-13 34v201q0 21 13 35t39 14t39 -15t13 -37v-198z" />
    <glyph glyph-name="colon" unicode=":" horiz-adv-x="121" 
d="M91 322v101h-60v-101h60zM91 0v100h-60v-100h60z" />
    <glyph glyph-name="semicolon" unicode=";" horiz-adv-x="121" 
d="M91 322v101h-60v-101h60zM91 10v90h-60v-100h27q0 -55 -33 -55v-21q36 0 51 24t15 62z" />
    <glyph glyph-name="less" unicode="&#x3c;" horiz-adv-x="382" 
d="M315 150v70l-172 114l172 112v70l-264 -172v-21z" />
    <glyph glyph-name="equal" unicode="=" horiz-adv-x="235" 
d="M220 367v61h-205v-61h205zM220 247v61h-205v-61h205z" />
    <glyph glyph-name="greater" unicode="&#x3e;" horiz-adv-x="382" 
d="M331 323v20l-263 174v-70l172 -114l-172 -112v-70z" />
    <glyph glyph-name="question" unicode="?" horiz-adv-x="247" 
d="M236 532q0 31 -6 57.5t-19.5 45.5t-35.5 30t-54 11q-54 0 -80 -35.5t-26 -92.5v-87h57v86q0 29 12 46t38 17q25 0 37 -16t12 -60q0 -10 -1.5 -25.5t-4.5 -34.5t-8 -38.5t-13 -37.5q-18 -39 -30.5 -69t-20 -55t-11 -47.5t-3.5 -47.5h52q0 40 8.5 70.5t29.5 65.5
q32 57 49.5 114.5t17.5 102.5zM136 0v97h-62v-97h62z" />
    <glyph glyph-name="at" unicode="@" horiz-adv-x="424" 
d="M408 296q0 40 -11 81t-34.5 74t-58.5 53.5t-83 20.5q-41 0 -77.5 -20t-63.5 -56.5t-43 -87t-16 -110.5q0 -63 16 -111.5t43 -82t63.5 -50.5t77.5 -17q42 0 74.5 14.5t54.5 39.5l-20 26q-18 -20 -46 -32t-63 -12t-64.5 15.5t-51.5 45t-34.5 71t-12.5 93.5q0 51 12.5 94
t34.5 75t51.5 50t64.5 18q31 0 58.5 -13t47 -38t31 -60t11.5 -78q0 -63 -18 -102t-48 -39q-19 0 -24.5 16.5t2.5 46.5l38 154h-48l-10 -36q-3 39 -40 39q-22 0 -41 -14.5t-33 -37.5t-22 -52t-8 -57q0 -43 16.5 -65t42.5 -22q19 0 36 15t28 39q-2 -30 14 -45.5t40 -15.5
q27 0 48 14t36 38t22.5 55.5t7.5 65.5zM252 304l-16 -72q-15 -60 -43 -60t-28 48q0 21 5 42.5t14 39t20.5 29t24.5 11.5t17.5 -10.5t5.5 -27.5z" />
    <glyph glyph-name="A" unicode="A" horiz-adv-x="290" 
d="M281 0l-97 666h-75l-101 -666h68l21 144h92l18 -144h74zM180 211h-74l39 297z" />
    <glyph glyph-name="B" unicode="B" horiz-adv-x="309" 
d="M281 120v123q0 37 -13 62t-45 35q30 10 43 34.5t13 61.5v110q0 33 -8.5 56t-23.5 37.5t-35 20.5t-43 6h-132v-666h134q23 0 43 6t35 20.5t23.5 37.5t8.5 56zM208 423q0 -26 -12 -40t-35 -14h-51v229h59q39 0 39 -47v-128zM210 115q0 -47 -40 -47h-60v240h53
q22 0 34.5 -14t12.5 -40v-139z" />
    <glyph glyph-name="C" unicode="C" horiz-adv-x="305" 
d="M280 124v110h-63v-117q0 -26 -14.5 -42t-41.5 -16q-29 0 -43.5 16t-14.5 41v434q0 24 14.5 40.5t43.5 16.5q27 0 41.5 -16.5t14.5 -41.5v-116h63v109q0 58 -31.5 96t-90.5 38q-29 0 -52.5 -10.5t-40 -29t-25.5 -43.5t-9 -54v-412q0 -59 34 -98t93 -39t90.5 38t31.5 96z
" />
    <glyph glyph-name="D" unicode="D" horiz-adv-x="320" 
d="M289 147v372q0 70 -28.5 108.5t-93.5 38.5h-130v-666h130q65 0 93.5 38.5t28.5 108.5zM217 141q0 -37 -12 -54t-40 -17h-55v526h55q28 0 40 -17t12 -55v-383z" />
    <glyph glyph-name="E" unicode="E" horiz-adv-x="270" 
d="M249 0v67h-140v245h101v65h-101v222h140v67h-212v-666h212z" />
    <glyph glyph-name="F" unicode="F" horiz-adv-x="258" 
d="M244 600v66h-207v-666h73v306h105v65h-105v229h134z" />
    <glyph glyph-name="G" unicode="G" horiz-adv-x="314" 
d="M286 0v331h-123v-63h53v-152q0 -26 -14 -43.5t-43 -17.5t-42.5 17.5t-13.5 43.5v434q0 23 14 40t42 17t41.5 -16.5t13.5 -39.5v-102h66v90q0 61 -31 99t-90 38t-93.5 -39t-34.5 -98v-412q0 -66 34 -101.5t82 -35.5q31 0 54.5 12.5t34.5 37.5l19 -40h31z" />
    <glyph glyph-name="H" unicode="H" horiz-adv-x="331" 
d="M294 0v666h-71v-302h-113v302h-73v-666h73v297h113v-297h71z" />
    <glyph glyph-name="I" unicode="I" horiz-adv-x="147" 
d="M110 0v666h-73v-666h73z" />
    <glyph glyph-name="J" unicode="J" horiz-adv-x="290" 
d="M256 121v545h-71v-551q0 -27 -11 -41.5t-37 -14.5q-49 0 -49 56v150h-68v-147q0 -60 31.5 -94t87.5 -34q57 0 87 36t30 95z" />
    <glyph glyph-name="K" unicode="K" horiz-adv-x="304" 
d="M295 0l-104 379l102 287h-71l-113 -348v348h-72v-666h72v184l36 112l75 -296h75z" />
    <glyph glyph-name="L" unicode="L" horiz-adv-x="258" 
d="M244 0v69h-135v597h-72v-666h207z" />
    <glyph glyph-name="M" unicode="M" horiz-adv-x="429" 
d="M391 0v666h-100l-59 -412l-16 -116l-16 116l-60 412h-103v-666h64v504l16 -116l63 -388h67l61 388l16 116v-504h67z" />
    <glyph glyph-name="N" unicode="N" horiz-adv-x="337" 
d="M302 0v666h-68v-450l-30 108l-103 342h-65v-666h68v444l32 -107l113 -337h53z" />
    <glyph glyph-name="O" unicode="O" horiz-adv-x="319" 
d="M287 129v408q0 30 -9 55.5t-25.5 44t-40.5 29t-53 10.5t-53 -10.5t-40.5 -29t-25.5 -44t-9 -55.5v-408q0 -61 34.5 -100t93.5 -39t93.5 39t34.5 100zM216 119q0 -26 -14.5 -43t-42.5 -17t-42 17t-14 43v428q0 26 14 43t42 17t42.5 -17t14.5 -43v-428z" />
    <glyph glyph-name="P" unicode="P" horiz-adv-x="297" 
d="M280 403v142q0 33 -9 56t-24 37.5t-35.5 21t-43.5 6.5h-131v-666h72v282h59q23 0 43.5 6.5t35.5 21t24 37.5t9 56zM207 396q0 -49 -38 -49h-60v251h60q38 0 38 -48v-154z" />
    <glyph glyph-name="Q" unicode="Q" horiz-adv-x="319" 
d="M315 0v44q-31 0 -44 13q16 26 16 65v417q0 59 -34.5 98t-93.5 39t-93.5 -39t-34.5 -98v-412q0 -59 34.5 -98t93.5 -39q41 0 70 19q17 -19 47 -19q14 0 22.5 2.5t16.5 7.5zM215 130l-46 -41l23 -21q-14 -9 -33 -9q-28 0 -42 17t-14 40v434q0 23 14 40t42 17t42 -17t14 -40
v-420z" />
    <glyph glyph-name="R" unicode="R" horiz-adv-x="314" 
d="M300 -6v49q-11 0 -14.5 6t-3.5 20v161q0 32 -13.5 58t-44.5 36q32 10 44 34t12 61v127q0 33 -8.5 56t-23.5 37.5t-35.5 20.5t-43.5 6h-132v-666h73v293h55q23 0 34.5 -14.5t11.5 -40.5v-172q0 -42 15.5 -57t51.5 -15h22zM208 411q0 -26 -12.5 -40.5t-33.5 -14.5h-52v242
h58q40 0 40 -47v-140z" />
    <glyph glyph-name="S" unicode="S" horiz-adv-x="296" 
d="M275 135q0 57 -25 110.5t-69 110.5q-22 29 -38 53t-26 46.5t-15 45t-5 49.5q0 61 54 61q27 0 40 -19t13 -54v-73h68v79q0 59 -32.5 95.5t-86.5 36.5q-32 0 -55.5 -11t-39.5 -30.5t-23.5 -46t-7.5 -57.5q0 -29 9.5 -60t24 -60.5t32.5 -57t36 -49.5q39 -51 57.5 -94
t18.5 -91q0 -32 -14 -50t-44 -18q-26 0 -41 20t-15 53v73h-70v-76q0 -58 34 -94.5t93 -36.5q23 0 45.5 7.5t40.5 25t29.5 45t11.5 67.5z" />
    <glyph glyph-name="T" unicode="T" 
d="M258 598v68h-246v-68h89v-598h71v598h86z" />
    <glyph glyph-name="U" unicode="U" horiz-adv-x="320" 
d="M286 124v542h-70v-546q0 -62 -55 -62t-55 62v546h-72v-542q0 -62 35.5 -98t90.5 -36q54 0 90 36t36 98z" />
    <glyph glyph-name="V" unicode="V" horiz-adv-x="294" 
d="M285 666h-70l-68 -509l-61 509h-75l98 -666h73z" />
    <glyph glyph-name="W" unicode="W" horiz-adv-x="430" 
d="M421 666h-67l-49 -478l-56 478h-59l-65 -478l-43 478h-71l75 -666h68l59 432l53 -432h67z" />
    <glyph glyph-name="X" unicode="X" horiz-adv-x="296" 
d="M286 0l-96 344l95 322h-70l-66 -258l-63 258h-73l93 -334l-99 -332h70l69 258l66 -258h74z" />
    <glyph glyph-name="Y" unicode="Y" horiz-adv-x="284" 
d="M283 666h-69l-71 -310l-71 310h-72l103 -403v-263h72v263z" />
    <glyph glyph-name="Z" unicode="Z" 
d="M256 628v38h-235v-69h156l-165 -559v-38h235v67h-155z" />
    <glyph glyph-name="bracketleft" unicode="[" horiz-adv-x="196" 
d="M213 -116v50h-90v746h90v50h-147v-846h147z" />
    <glyph glyph-name="backslash" unicode="\" horiz-adv-x="204" 
d="M213 -64l-182 793h-45l183 -793h44z" />
    <glyph glyph-name="bracketright" unicode="]" horiz-adv-x="196" 
d="M130 -116v846h-148v-50h91v-746h-91v-50h148z" />
    <glyph glyph-name="asciicircum" unicode="^" horiz-adv-x="204" 
d="M198 566v20q-20 0 -41 19t-31 61h-47q-10 -42 -31 -61t-41 -19v-20q8 -2 14.5 -3.5t14.5 -1.5q24 0 41 14t24 46q6 -32 23.5 -46t40.5 -14q16 0 33 5z" />
    <glyph glyph-name="underscore" unicode="_" horiz-adv-x="260" 
d="M260 -60v60h-260v-60h260z" />
    <glyph glyph-name="grave" unicode="`" horiz-adv-x="133" 
d="M117 521l-35 120h-65l60 -120h40z" />
    <glyph glyph-name="a" unicode="a" horiz-adv-x="253" 
d="M232 -8v48q-15 0 -15 22v298q0 51 -23 82t-70 31q-45 0 -68.5 -30t-23.5 -78v-49h55v45q0 24 6.5 36.5t28.5 12.5q20 0 28 -12.5t8 -35.5v-76q-27 -13 -52 -29t-44 -35.5t-30 -44t-11 -53.5v-22q0 -51 21 -80.5t59 -29.5q21 0 39 11.5t29 31.5q5 -23 18.5 -33t29.5 -10
h15zM158 111q0 -24 -13 -42.5t-32 -18.5q-20 0 -27.5 14t-7.5 36v31q0 27 20 54t60 41v-115z" />
    <glyph glyph-name="b" unicode="b" horiz-adv-x="264" 
d="M235 91v283q0 45 -18 72t-53 27q-25 0 -43 -14.5t-27 -39.5v247h-61v-666h49l7 48q9 -31 28.5 -44t41.5 -13q35 0 55.5 27t20.5 73zM175 102q0 -52 -40 -52q-18 0 -29.5 13t-11.5 37v262q0 23 10.5 36.5t30.5 13.5q40 0 40 -52v-258z" />
    <glyph glyph-name="c" unicode="c" horiz-adv-x="244" 
d="M222 113v49h-52v-60q0 -22 -10 -34.5t-30 -12.5t-30.5 12.5t-10.5 35.5v258q0 23 10.5 36.5t30.5 13.5t30 -14t10 -35v-61h52v50q0 55 -24 88.5t-71 33.5q-44 0 -71 -34t-27 -89v-236q0 -56 27 -89t71 -33q47 0 71 32.5t24 88.5z" />
    <glyph glyph-name="d" unicode="d" horiz-adv-x="264" 
d="M231 0v666h-61v-239q-21 46 -67 46q-35 0 -54.5 -27.5t-19.5 -74.5v-280q0 -46 20.5 -73t55.5 -27q22 0 41 13t29 44l6 -48h50zM170 100q0 -24 -12 -37t-29 -13q-40 0 -40 52v259q0 52 40 52q19 0 30 -13.5t11 -36.5v-263z" />
    <glyph glyph-name="e" unicode="e" horiz-adv-x="248" 
d="M222 113v50h-54v-58q0 -24 -9 -38t-29 -14q-22 0 -31.5 14t-9.5 38v119h133v126q0 55 -24.5 89t-69.5 34q-44 0 -71.5 -34t-27.5 -89v-236q0 -56 27.5 -89t71.5 -33q45 0 69.5 32.5t24.5 88.5zM168 270h-79v88q0 24 9.5 38.5t31.5 14.5q20 0 29 -14.5t9 -38.5v-88z" />
    <glyph glyph-name="f" unicode="f" horiz-adv-x="157" 
d="M151 408v58h-45v94q0 23 9 35.5t29 12.5h14v58h-16q-50 0 -72 -33.5t-22 -98.5v-68h-36v-58h36v-408h61v408h42z" />
    <glyph glyph-name="g" unicode="g" horiz-adv-x="253" 
d="M251 481q0 8 -0.5 16t-2.5 19h-45q0 -21 -9.5 -35t-29.5 -14q-8 0 -15 3t-21 3q-42 0 -70 -33t-28 -84v-85q0 -34 10.5 -65t36.5 -42q-23 -5 -37 -23t-14 -40q0 -20 12 -38t30 -25q-45 -18 -45 -69v-39q0 -51 28.5 -79.5t77.5 -28.5q51 0 80.5 29t29.5 86v45
q0 48 -26.5 73t-77.5 25q-32 0 -44 9.5t-12 26.5q0 14 8.5 24.5t18.5 10.5q3 -1 10 -2t12 -1q42 0 69 34t27 85v89q0 23 -7 45t-25 41q9 -5 20 -5q16 0 27.5 11.5t11.5 32.5zM168 255q0 -20 -10.5 -34t-29.5 -14q-20 0 -30.5 14t-10.5 34v110q0 20 10.5 34t30.5 14
q19 0 29.5 -14t10.5 -34v-110zM183 -71q0 -19 -12.5 -33.5t-39.5 -14.5q-26 0 -38.5 14t-12.5 33v49q0 20 12 33.5t39 13.5q29 0 40.5 -13.5t11.5 -32.5v-49z" />
    <glyph glyph-name="h" unicode="h" horiz-adv-x="268" 
d="M237 0v376q0 44 -19 70t-53 26q-23 0 -42 -15t-29 -44v253h-61v-666h61v355q0 20 11.5 39.5t32.5 19.5q17 0 27 -13t10 -34v-367h62z" />
    <glyph glyph-name="i" unicode="i" horiz-adv-x="127" 
d="M91 532v75h-55v-75h55zM94 0v468h-61v-468h61z" />
    <glyph glyph-name="j" unicode="j" horiz-adv-x="127" 
d="M91 532v75h-55v-75h55zM94 -47v515h-61v-543q0 -41 -37 -41h-8v-56h15q50 0 70.5 31t20.5 94z" />
    <glyph glyph-name="k" unicode="k" horiz-adv-x="250" 
d="M242 0l-75 265l71 204h-61l-82 -246v443h-62v-666h62v124l33 80l51 -204h63z" />
    <glyph glyph-name="l" unicode="l" horiz-adv-x="127" 
d="M94 0v666h-61v-666h61z" />
    <glyph glyph-name="m" unicode="m" horiz-adv-x="381" 
d="M350 0v382q0 43 -16.5 66.5t-47.5 23.5q-21 0 -39.5 -13t-29.5 -41q-6 24 -19 39t-36 15q-48 0 -71 -61l-3 57h-55v-468h61v353q0 21 9 41t29 20q29 0 29 -46v-368h62v350q0 21 9 41t27 20q31 0 31 -46v-365h60z" />
    <glyph glyph-name="n" unicode="n" 
d="M237 0v376q0 44 -19.5 70t-54.5 26q-23 0 -42 -15.5t-30 -50.5l-4 62h-54v-468h61v355q0 20 11.5 39.5t32.5 19.5q17 0 27.5 -13t10.5 -34v-367h61z" />
    <glyph glyph-name="o" unicode="o" horiz-adv-x="259" 
d="M230 114v236q0 55 -28 89t-72 34q-45 0 -73 -34t-28 -89v-236q0 -56 28 -89t73 -33q44 0 72 33t28 89zM170 102q0 -22 -10 -34.5t-30 -12.5t-30 12.5t-10 34.5v260q0 21 10 35t30 14t30 -14t10 -35v-260z" />
    <glyph glyph-name="p" unicode="p" horiz-adv-x="264" 
d="M235 92v285q0 46 -20 73t-55 27q-22 0 -41.5 -13.5t-29.5 -44.5l-6 49h-50v-637h61v210q22 -46 70 -46q32 0 51.5 26.5t19.5 70.5zM175 108q0 -53 -40 -53q-19 0 -30 14t-11 37v262q0 24 12 37t29 13q40 0 40 -52v-258z" />
    <glyph glyph-name="q" unicode="q" horiz-adv-x="264" 
d="M231 -174v638h-49l-7 -49q-9 31 -28.5 44t-41.5 13q-35 0 -55.5 -26.5t-20.5 -73.5v-284q0 -44 19.5 -70.5t50.5 -26.5q51 0 71 53v-218h61zM170 102q0 -24 -10.5 -38t-30.5 -14q-40 0 -40 53v259q0 52 40 52q18 0 29.5 -13.5t11.5 -37.5v-261z" />
    <glyph glyph-name="r" unicode="r" horiz-adv-x="187" 
d="M179 401v70q-31 3 -53 -11.5t-34 -49.5l-4 58h-55v-468h61v346q0 29 18.5 43t66.5 12z" />
    <glyph glyph-name="s" unicode="s" horiz-adv-x="235" 
d="M216 107q0 48 -18.5 84.5t-53.5 66.5q-35 32 -49.5 56t-14.5 53q0 19 10.5 31.5t30.5 12.5t30.5 -12t10.5 -32v-46h51v35q0 56 -22 86.5t-72 30.5q-42 0 -69 -30.5t-27 -84.5q0 -45 24.5 -82t57.5 -66q18 -18 28.5 -32t16.5 -26.5t7.5 -25.5t1.5 -29q0 -48 -44 -48
q-42 0 -42 53v41h-52v-32q0 -56 23.5 -87.5t73.5 -31.5q45 0 71.5 32t26.5 83z" />
    <glyph glyph-name="t" unicode="t" horiz-adv-x="158" 
d="M148 408v58h-41v99l-57 -24v-75h-41v-58h36v-276q0 -46 4 -76t13 -56h58q-8 29 -10.5 60.5t-2.5 71.5v276h41z" />
    <glyph glyph-name="u" unicode="u" 
d="M236 0v468h-62v-360q0 -19 -11 -38.5t-32 -19.5q-17 0 -27.5 12.5t-10.5 33.5v372h-61v-379q0 -45 19.5 -71.5t54.5 -26.5q23 0 42 15t29 47l4 -53h55z" />
    <glyph glyph-name="v" unicode="v" horiz-adv-x="230" 
d="M219 468h-58l-34 -265l-12 -104l-11 104l-36 265h-59l75 -468h61z" />
    <glyph glyph-name="w" unicode="w" horiz-adv-x="348" 
d="M337 468h-56l-29 -257l-10 -106l-11 106l-32 257h-49l-32 -257l-11 -106l-11 106l-28 257h-59l67 -468h57l29 197l12 102l11 -102l28 -197h57z" />
    <glyph glyph-name="x" unicode="x" horiz-adv-x="226" 
d="M220 0l-78 233l78 235h-60l-47 -166l-47 166h-62l78 -235l-78 -233h61l46 165l46 -165h63z" />
    <glyph glyph-name="y" unicode="y" horiz-adv-x="230" 
d="M219 468h-60l-33 -262l-13 -103l-11 103l-33 262h-60l76 -473l-10 -70q-4 -20 -12 -30t-28 -10h-12v-57h15q25 0 41.5 8t27 23.5t17.5 39t12 54.5z" />
    <glyph glyph-name="z" unicode="z" horiz-adv-x="211" 
d="M196 436v32h-177v-58h112l-119 -378v-32h178v58h-112z" />
    <glyph glyph-name="braceleft" unicode="{" horiz-adv-x="228" 
d="M204 -116v41h-30q-30 0 -45 26t-15 64q0 27 9 56.5t19.5 57t19.5 52.5t9 45q0 34 -15 53t-50 28q35 9 50 28.5t15 52.5q0 19 -9 44.5t-19.5 53.5t-19.5 57t-9 56q0 38 15 64t45 26h30v41h-25q-31 0 -53.5 -10.5t-37.5 -28.5t-22.5 -41.5t-7.5 -50.5q0 -36 10 -70.5
t22.5 -65t22.5 -55t10 -40.5q0 -20 -10.5 -31t-38.5 -11h-31v-38h31q28 0 38.5 -11t10.5 -31q0 -16 -10 -40.5t-22.5 -54.5t-22.5 -65t-10 -71q0 -27 7.5 -50.5t22.5 -41.5t37.5 -28.5t53.5 -10.5h25z" />
    <glyph glyph-name="bar" unicode="|" horiz-adv-x="118" 
d="M81 -64v793h-44v-793h44z" />
    <glyph glyph-name="braceright" unicode="}" horiz-adv-x="228" 
d="M185 288v38h-31q-27 0 -38 11t-11 31q0 16 10.5 40.5t22.5 55t22.5 65t10.5 70.5q0 27 -7.5 50.5t-22.5 41.5t-38 28.5t-54 10.5h-24v-41h29q30 0 45.5 -26t15.5 -64q0 -27 -9 -56t-20 -57t-20 -53.5t-9 -44.5q0 -33 15.5 -52.5t50.5 -28.5q-35 -9 -50.5 -28t-15.5 -53
q0 -20 9 -45t20 -52.5t20 -57t9 -56.5q0 -38 -15.5 -64t-45.5 -26h-29v-41h24q31 0 54 10.5t38 28.5t22.5 41.5t7.5 50.5q0 36 -10.5 71t-22.5 65t-22.5 54.5t-10.5 40.5q0 20 11 31t38 11h31z" />
    <glyph glyph-name="asciitilde" unicode="~" horiz-adv-x="199" 
d="M193 347q0 18 -9 31h-30v-25q0 -16 -14 -16q-6 0 -16 6t-21 13.5t-24 14t-25 6.5q-24 0 -35.5 -16t-11.5 -44q0 -17 9 -30h30v25q0 16 14 16q6 0 16 -6.5t21.5 -14t23.5 -14t24 -6.5q25 0 36.5 16t11.5 44z" />
    <glyph glyph-name="nonbreakingspace" unicode="&#xa0;" horiz-adv-x="58" 
 />
    <glyph glyph-name="exclamdown" unicode="&#xa1;" horiz-adv-x="139" 
d="M100 371v97h-61v-97h61zM103 -198v289l-23 210h-20l-24 -210v-289h67z" />
    <glyph glyph-name="cent" unicode="&#xa2;" horiz-adv-x="257" 
d="M109 573q-33 -10 -53.5 -41t-20.5 -76v-242q0 -47 20.5 -77.5t53.5 -39.5v-97h53v99q32 10 49 40t17 75v50h-53v-60q0 -46 -39 -46q-18 0 -28.5 12t-10.5 34v262q0 21 10.5 34.5t28.5 13.5q19 0 29 -13.5t10 -34.5v-63h53v53q0 45 -17 75t-49 40v95h-53v-93z" />
    <glyph glyph-name="sterling" unicode="&#xa3;" horiz-adv-x="346" 
d="M321 113v84h-58v-101q0 -18 -8 -30t-28 -12q-14 0 -29.5 8t-27.5 20q9 18 16 41t11.5 47t6.5 47.5t2 41.5q0 9 -1 22t-3 23h75v62h-92q-13 38 -23 84.5t-10 86.5q0 36 12.5 52.5t33.5 16.5q27 0 38 -16.5t11 -44.5v-72h59v69q0 27 -6 51.5t-19 43t-33.5 29t-48.5 10.5
q-29 0 -50.5 -12t-35.5 -33t-20.5 -49t-6.5 -60q0 -42 9 -82.5t23 -73.5h-71v-62h88q5 -12 7.5 -30t2.5 -32q0 -15 -2 -32.5t-5 -35t-7 -33t-9 -25.5q-11 8 -24 13t-27 5q-37 0 -58 -20.5t-21 -52.5q0 -33 21.5 -52t53.5 -19q44 0 70 43q18 -21 44 -32t53 -11
q44 0 65.5 28.5t21.5 94.5zM98 68q-3 -12 -12 -18.5t-20 -6.5q-23 0 -23 22q0 9 6 15t17 6q7 0 15.5 -4.5t16.5 -13.5z" />
    <glyph glyph-name="currency" unicode="&#xa4;" horiz-adv-x="295" 
d="M95 366v180q0 28 14.5 44.5t42.5 16.5t43 -16.5t15 -46.5v-89h60v87q0 63 -31 98.5t-90 35.5q-57 0 -87.5 -38.5t-30.5 -96.5v-416q0 -59 30 -97t88 -38q59 0 90 35.5t31 98.5v87h-60v-89q0 -63 -58 -63q-28 0 -42.5 16t-14.5 45v182h135v64h-135z" />
    <glyph glyph-name="yen" unicode="&#xa5;" horiz-adv-x="294" 
d="M178 276h87v60h-71l86 330h-70l-62 -292l-62 292h-71l80 -330h-72v-60h88v-65h-88v-62h88v-149h67v149h87v62h-87v65z" />
    <glyph glyph-name="section" unicode="&#xa7;" horiz-adv-x="296" 
d="M280 250q0 34 -13.5 62.5t-33.5 53t-44 46.5t-44 43.5t-33.5 44t-13.5 48.5q0 27 12.5 43.5t41.5 16.5q31 0 43 -17.5t12 -43.5v-45h64v38q0 27 -7 52t-21 43.5t-36.5 29.5t-53.5 11t-54 -10.5t-38 -29t-22.5 -43t-7.5 -51.5q0 -39 15.5 -70.5t45.5 -64.5
q-30 -28 -50.5 -67t-20.5 -84q0 -35 14 -64t34.5 -54t45 -47t45 -44t34.5 -44.5t14 -48.5q0 -29 -15.5 -47t-46.5 -18q-29 0 -45.5 17t-16.5 46v45h-63v-36q0 -66 34.5 -101t95.5 -35q30 0 53 11t38 29.5t23 42.5t8 51q0 39 -15 70t-46 67q29 23 48.5 62t19.5 92zM216 229
q0 -24 -12.5 -49.5t-31.5 -41.5q-26 20 -42.5 36.5t-25.5 32t-12.5 31.5t-3.5 36q0 24 12 50.5t32 42.5q24 -19 40.5 -35.5t26 -32.5t13.5 -33t4 -37z" />
    <glyph glyph-name="dieresis" unicode="&#xa8;" horiz-adv-x="162" 
d="M154 541v82h-54v-82h54zM63 541v82h-55v-82h55z" />
    <glyph glyph-name="copyright" unicode="&#xa9;" horiz-adv-x="543" 
d="M526 312q0 54 -19.5 101t-53.5 82t-80.5 55.5t-101.5 20.5t-101.5 -20.5t-80.5 -55.5t-53 -82t-19 -101q0 -53 19 -100t53 -82t80.5 -55.5t101.5 -20.5t101.5 20.5t80.5 55.5t53.5 82t19.5 100zM486 312q0 -46 -15.5 -86t-44 -70t-68 -47.5t-87.5 -17.5q-47 0 -86.5 17.5
t-68 47.5t-44 70t-15.5 86t15.5 86.5t44 70.5t68 47t86.5 17q48 0 87.5 -17t68 -47t44 -70.5t15.5 -86.5zM357 258v17h-39v-17q0 -16 -11 -27t-32 -11q-22 0 -32.5 11.5t-10.5 27.5v106q0 17 10.5 28.5t32.5 11.5q21 0 32 -11.5t11 -27.5v-16h39v16q0 33 -23 53t-60 20
q-38 0 -62 -20.5t-24 -53.5v-106q0 -32 24 -53t62 -21q37 0 60 20.5t23 52.5z" />
    <glyph glyph-name="ordfeminine" unicode="&#xaa;" horiz-adv-x="225" 
d="M213 308v42q-11 0 -14.5 4.5t-3.5 12.5v213q0 42 -19.5 69t-63.5 27q-42 0 -62 -25.5t-20 -63.5v-30h48v27q0 20 6.5 31t26.5 11q34 0 34 -40v-55q-24 -8 -47 -18.5t-40 -25t-27.5 -34t-10.5 -44.5v-13q0 -42 18.5 -65t51.5 -23q20 0 37 10t28 27q2 -20 14 -28.5t26 -8.5
h18zM145 405q0 -21 -13.5 -35.5t-31.5 -14.5q-17 0 -24 11.5t-7 29.5v17q0 25 19 44t57 29v-81z" />
    <glyph glyph-name="guillemotleft" unicode="&#xab;" horiz-adv-x="308" 
d="M155 0q0 69 -21 116.5t-56 76.5q35 29 56 77t21 117h-33q-9 -61 -37 -101.5t-70 -63.5v-57q42 -23 70 -63.5t37 -101.5h33zM288 0q0 69 -21 116.5t-56 76.5q35 29 56 77t21 117h-33q-9 -61 -37 -101.5t-70 -63.5v-57q42 -23 70 -63.5t37 -101.5h33z" />
    <glyph glyph-name="logicalnot" unicode="&#xac;" horiz-adv-x="320" 
d="M269 266l-70 69l70 68l-41 40l-68 -69l-68 69l-41 -40l68 -69l-68 -69l40 -40l68 69l69 -69z" />
    <glyph glyph-name="registered" unicode="&#xae;" horiz-adv-x="543" 
d="M526 312q0 54 -19.5 101t-53.5 82t-80.5 55.5t-101.5 20.5t-101.5 -20.5t-80.5 -55.5t-53 -82t-19 -101q0 -53 19 -100t53 -82t80.5 -55.5t101.5 -20.5t101.5 20.5t80.5 55.5t53.5 82t19.5 100zM486 312q0 -46 -15.5 -86t-44 -70t-68 -47.5t-87.5 -17.5q-47 0 -86.5 17.5
t-68 47.5t-44 70t-15.5 86t15.5 86.5t44 70.5t68 47t86.5 17q48 0 87.5 -17t68 -47t44 -70.5t15.5 -86.5zM370 190v32q-13 0 -13 10v30q0 17 -9.5 32t-30.5 17q22 4 30.5 16t8.5 34v10q0 29 -15.5 46.5t-53.5 17.5h-92v-242h44v103h44q16 0 23 -10t7 -24v-33q0 -23 10 -31
t35 -8h12zM311 358q0 -32 -31 -32h-41v74h45q16 0 21.5 -8t5.5 -20v-14z" />
    <glyph glyph-name="macron" unicode="&#xaf;" horiz-adv-x="169" 
d="M163 551v50h-157v-50h157z" />
    <glyph glyph-name="macron" unicode="&#x2c9;" horiz-adv-x="169" 
d="M163 551v50h-157v-50h157z" />
    <glyph glyph-name="degree" unicode="&#xb0;" horiz-adv-x="198" 
d="M188 588q0 18 -6.5 34t-18 28t-28 19t-36.5 7t-36.5 -7t-28 -19t-18 -28t-6.5 -34t6.5 -34t18 -28t28 -19.5t36.5 -7.5t36.5 7.5t28 19.5t18 28t6.5 34zM143 588q0 -22 -11.5 -35.5t-32.5 -13.5t-32.5 13.5t-11.5 35.5q0 21 11.5 34.5t32.5 13.5t32.5 -13.5t11.5 -34.5z
" />
    <glyph glyph-name="plusminus" unicode="&#xb1;" horiz-adv-x="507" 
d="M483 0v480h-459v-480h459zM432 49h-357v382h357v-382z" />
    <glyph glyph-name="acute" unicode="&#xb4;" horiz-adv-x="133" 
d="M126 641h-65l-35 -120h40z" />
    <glyph glyph-name="paragraph" unicode="&#xb6;" horiz-adv-x="416" 
d="M377 -167v833h-182q-35 0 -65.5 -16.5t-53 -46.5t-35 -72.5t-12.5 -94.5v-16q0 -52 12.5 -94t35 -72t53 -46.5t65.5 -16.5h31v-358h50v757h51v-757h50zM226 262h-15q-29 0 -46.5 17.5t-17.5 62.5v149q0 46 17.5 72.5t46.5 26.5h15v-328z" />
    <glyph glyph-name="periodcentered" unicode="&#xb7;" horiz-adv-x="111" 
d="M86 282v100h-60v-100h60z" />
    <glyph glyph-name="cedilla" unicode="&#xb8;" horiz-adv-x="122" 
d="M128 -115q0 26 -14.5 43.5t-43.5 17.5q-5 0 -12 -1t-11 -4l37 57l-21 17l-60 -94l21 -15q14 16 31 16q14 0 21 -7t7 -24v-11q0 -29 -28 -29h-16v-22q3 -2 9.5 -4.5t15.5 -2.5q29 0 46.5 18.5t17.5 44.5z" />
    <glyph glyph-name="ordmasculine" unicode="&#xba;" horiz-adv-x="214" 
d="M197 410v164q0 47 -25.5 74.5t-63.5 27.5t-64 -27.5t-26 -74.5v-164q0 -48 26 -75t64 -27t63.5 27t25.5 75zM144 398q0 -18 -9.5 -29.5t-26.5 -11.5q-18 0 -28 11.5t-10 29.5v188q0 18 10 30t28 12q17 0 26.5 -12t9.5 -30v-188z" />
    <glyph glyph-name="guillemotright" unicode="&#xbb;" horiz-adv-x="308" 
d="M158 165v57q-42 23 -70 63.5t-37 101.5h-33q0 -69 21 -117t56 -77q-35 -29 -56 -76.5t-21 -116.5h33q9 61 37 101.5t70 63.5zM291 165v57q-42 23 -70 63.5t-37 101.5h-33q0 -69 21 -117t56 -77q-35 -29 -56 -76.5t-21 -116.5h33q9 61 37 101.5t70 63.5z" />
    <glyph glyph-name="questiondown" unicode="&#xbf;" horiz-adv-x="224" 
d="M-8 -64q0 -31 6 -57.5t19.5 -45.5t35.5 -30t54 -11q54 0 80 35.5t26 92.5v87h-57v-86q0 -29 -12 -46t-38 -17q-25 0 -37 16t-12 60q0 10 1.5 25.5t4.5 34.5t8 38.5t13 37.5q18 39 30.5 69t20 55t11 47.5t3.5 47.5h-52q0 -40 -8.5 -70.5t-29.5 -65.5q-32 -57 -49.5 -114.5
t-17.5 -102.5zM92 468v-97h62v97h-62z" />
    <glyph glyph-name="Agrave" unicode="&#xc0;" horiz-adv-x="290" 
d="M281 0l-97 666h-75l-101 -666h68l21 144h92l18 -144h74zM180 211h-74l39 297zM165 699l-35 120h-65l60 -120h40z" />
    <glyph glyph-name="Aacute" unicode="&#xc1;" horiz-adv-x="290" 
d="M281 0l-97 666h-75l-101 -666h68l21 144h92l18 -144h74zM180 211h-74l39 297zM224 819h-65l-35 -120h40z" />
    <glyph glyph-name="Acircumflex" unicode="&#xc2;" horiz-adv-x="290" 
d="M281 0l-97 666h-75l-101 -666h68l21 144h92l18 -144h74zM180 211h-74l39 297zM243 706v20q-20 0 -41 19t-31 61h-47q-10 -42 -31 -61t-41 -19v-20q8 -2 14.5 -4t14.5 -2q24 0 41 14t24 46q6 -32 23.5 -46t40.5 -14q7 0 16 2t17 4z" />
    <glyph glyph-name="Atilde" unicode="&#xc3;" horiz-adv-x="290" 
d="M281 0l-97 666h-75l-101 -666h68l21 144h92l18 -144h74zM180 211h-74l39 297zM235 766q0 18 -9 31h-30v-25q0 -16 -14 -16q-6 0 -16 6t-21 13.5t-24 14t-25 6.5q-24 0 -35.5 -16t-11.5 -43q0 -18 9 -31h30v25q0 16 14 16q6 0 16 -6.5t21.5 -14t23.5 -14t24 -6.5
q25 0 36.5 16t11.5 44z" />
    <glyph glyph-name="Adieresis" unicode="&#xc4;" horiz-adv-x="290" 
d="M281 0l-97 666h-75l-101 -666h68l21 144h92l18 -144h74zM180 211h-74l39 297zM216 719v82h-54v-82h54zM125 719v82h-55v-82h55z" />
    <glyph glyph-name="Aring" unicode="&#xc5;" horiz-adv-x="290" 
d="M180 211h-74l39 297zM174 717q0 -35 -27 -35q-28 0 -28 35q0 36 28 36q27 0 27 -36zM118 666h-9l-101 -666h68l21 144h92l18 -144h74l-97 666h-9q12 8 19.5 21.5t7.5 29.5q0 25 -15.5 43.5t-39.5 18.5q-25 0 -40.5 -18.5t-15.5 -43.5q0 -34 27 -51z" />
    <glyph glyph-name="AE" unicode="&#xc6;" horiz-adv-x="426" 
d="M405 0v67h-140v246h101v64h-101v222h140v67h-244l-153 -666h68l34 144h84v-144h211zM194 211h-69l69 340v-340z" />
    <glyph glyph-name="Ccedilla" unicode="&#xc7;" horiz-adv-x="305" 
d="M134 -9l-44 -70l20 -15q14 16 31 16q14 0 21 -7t7 -24v-11q0 -29 -28 -29h-16v-22q3 -2 10 -4.5t15 -2.5q29 0 46.5 18.5t17.5 44.5t-14 43.5t-43 17.5q-6 0 -13 -1t-11 -4l31 49q55 2 85.5 40t30.5 94v110h-63v-117q0 -26 -14.5 -42t-41.5 -16q-29 0 -43.5 16t-14.5 41
v434q0 24 14.5 40.5t43.5 16.5q27 0 41.5 -16.5t14.5 -41.5v-116h63v109q0 58 -31.5 96t-90.5 38q-29 0 -52.5 -10.5t-40 -29t-25.5 -43.5t-9 -54v-412q0 -52 27.5 -90t75.5 -46z" />
    <glyph glyph-name="Egrave" unicode="&#xc8;" horiz-adv-x="270" 
d="M249 0v67h-140v245h101v65h-101v222h140v67h-212v-666h212zM164 699l-35 120h-65l60 -120h40z" />
    <glyph glyph-name="Eacute" unicode="&#xc9;" horiz-adv-x="270" 
d="M249 0v67h-140v245h101v65h-101v222h140v67h-212v-666h212zM212 819h-65l-35 -120h40z" />
    <glyph glyph-name="Ecircumflex" unicode="&#xca;" horiz-adv-x="270" 
d="M249 0v67h-140v245h101v65h-101v222h140v67h-212v-666h212zM237 706v20q-20 0 -41 19t-31 61h-47q-10 -42 -31 -61t-41 -19v-20q8 -2 14.5 -4t14.5 -2q24 0 41 14t24 46q6 -32 23.5 -46t40.5 -14q7 0 16 2t17 4z" />
    <glyph glyph-name="Edieresis" unicode="&#xcb;" horiz-adv-x="270" 
d="M249 0v67h-140v245h101v65h-101v222h140v67h-212v-666h212zM214 719v82h-54v-82h54zM123 719v82h-55v-82h55z" />
    <glyph glyph-name="Igrave" unicode="&#xcc;" horiz-adv-x="147" 
d="M110 0v666h-73v-666h73zM94 699l-35 120h-65l60 -120h40z" />
    <glyph glyph-name="Iacute" unicode="&#xcd;" horiz-adv-x="147" 
d="M110 0v666h-73v-666h73zM151 819h-65l-35 -120h40z" />
    <glyph glyph-name="Icircumflex" unicode="&#xce;" horiz-adv-x="147" 
d="M110 0v666h-73v-666h73zM171 706v20q-20 0 -41 19t-31 61h-47q-10 -42 -31 -61t-41 -19v-20q8 -2 14.5 -4t14.5 -2q24 0 41 14t24 46q6 -32 23.5 -46t40.5 -14q7 0 16 2t17 4z" />
    <glyph glyph-name="Idieresis" unicode="&#xcf;" horiz-adv-x="147" 
d="M110 0v666h-73v-666h73zM147 719v82h-54v-82h54zM56 719v82h-55v-82h55z" />
    <glyph glyph-name="Eth" unicode="&#xd0;" horiz-adv-x="338" 
d="M127 362v234h56q28 0 40.5 -17t12.5 -55v-383q0 -72 -53 -72h-56v232h54v61h-54zM56 301v-301h129q64 0 93 38.5t29 108.5v372q0 70 -29 108.5t-93 38.5h-129v-304h-59v-61h59z" />
    <glyph glyph-name="Ntilde" unicode="&#xd1;" horiz-adv-x="337" 
d="M302 0v666h-68v-450l-30 108l-103 342h-65v-666h68v444l32 -107l113 -337h53zM258 766q0 18 -9 31h-30v-25q0 -16 -14 -16q-6 0 -16 6t-21 13.5t-24 14t-25 6.5q-24 0 -35.5 -16t-11.5 -43q0 -18 9 -31h30v25q0 16 14 16q6 0 16 -6.5t21.5 -14t23.5 -14t24 -6.5
q25 0 36.5 16t11.5 44z" />
    <glyph glyph-name="Ograve" unicode="&#xd2;" horiz-adv-x="319" 
d="M287 129v408q0 30 -9 55.5t-25.5 44t-40.5 29t-53 10.5t-53 -10.5t-40.5 -29t-25.5 -44t-9 -55.5v-408q0 -61 34.5 -100t93.5 -39t93.5 39t34.5 100zM216 119q0 -26 -14.5 -43t-42.5 -17t-42 17t-14 43v428q0 26 14 43t42 17t42.5 -17t14.5 -43v-428zM178 699l-35 120
h-65l60 -120h40z" />
    <glyph glyph-name="Oacute" unicode="&#xd3;" horiz-adv-x="319" 
d="M287 129v408q0 30 -9 55.5t-25.5 44t-40.5 29t-53 10.5t-53 -10.5t-40.5 -29t-25.5 -44t-9 -55.5v-408q0 -61 34.5 -100t93.5 -39t93.5 39t34.5 100zM216 119q0 -26 -14.5 -43t-42.5 -17t-42 17t-14 43v428q0 26 14 43t42 17t42.5 -17t14.5 -43v-428zM238 819h-65
l-35 -120h40z" />
    <glyph glyph-name="Ocircumflex" unicode="&#xd4;" horiz-adv-x="319" 
d="M287 129v408q0 30 -9 55.5t-25.5 44t-40.5 29t-53 10.5t-53 -10.5t-40.5 -29t-25.5 -44t-9 -55.5v-408q0 -61 34.5 -100t93.5 -39t93.5 39t34.5 100zM216 119q0 -26 -14.5 -43t-42.5 -17t-42 17t-14 43v428q0 26 14 43t42 17t42.5 -17t14.5 -43v-428zM256 706v20
q-20 0 -41 19t-31 61h-47q-10 -42 -31 -61t-41 -19v-20q8 -2 14.5 -4t14.5 -2q24 0 41 14t24 46q6 -32 23.5 -46t40.5 -14q7 0 16 2t17 4z" />
    <glyph glyph-name="Otilde" unicode="&#xd5;" horiz-adv-x="319" 
d="M287 129v408q0 30 -9 55.5t-25.5 44t-40.5 29t-53 10.5t-53 -10.5t-40.5 -29t-25.5 -44t-9 -55.5v-408q0 -61 34.5 -100t93.5 -39t93.5 39t34.5 100zM216 119q0 -26 -14.5 -43t-42.5 -17t-42 17t-14 43v428q0 26 14 43t42 17t42.5 -17t14.5 -43v-428zM247 766q0 18 -9 31
h-30v-25q0 -16 -14 -16q-6 0 -16 6t-21 13.5t-24 14t-25 6.5q-24 0 -35.5 -16t-11.5 -43q0 -18 9 -31h30v25q0 16 14 16q6 0 16 -6.5t21.5 -14t23.5 -14t24 -6.5q25 0 36.5 16t11.5 44z" />
    <glyph glyph-name="Odieresis" unicode="&#xd6;" horiz-adv-x="319" 
d="M287 129v408q0 30 -9 55.5t-25.5 44t-40.5 29t-53 10.5t-53 -10.5t-40.5 -29t-25.5 -44t-9 -55.5v-408q0 -61 34.5 -100t93.5 -39t93.5 39t34.5 100zM216 119q0 -26 -14.5 -43t-42.5 -17t-42 17t-14 43v428q0 26 14 43t42 17t42.5 -17t14.5 -43v-428zM232 719v82h-54v-82
h54zM141 719v82h-55v-82h55z" />
    <glyph glyph-name="multiply" unicode="&#xd7;" horiz-adv-x="320" 
d="M269 266l-70 69l70 68l-41 40l-68 -69l-68 69l-41 -40l68 -69l-68 -69l40 -40l68 69l69 -69z" />
    <glyph glyph-name="Oslash" unicode="&#xd8;" horiz-adv-x="319" 
d="M288 679l-38 15l-220 -707l38 -15zM287 129v408q0 30 -9 55.5t-25.5 44t-40.5 29t-53 10.5t-53 -10.5t-40.5 -29t-25.5 -44t-9 -55.5v-408q0 -61 34.5 -100t93.5 -39t93.5 39t34.5 100zM216 119q0 -26 -14.5 -43t-42.5 -17t-42 17t-14 43v428q0 26 14 43t42 17t42.5 -17
t14.5 -43v-428z" />
    <glyph glyph-name="Ugrave" unicode="&#xd9;" horiz-adv-x="320" 
d="M286 124v542h-70v-546q0 -62 -55 -62t-55 62v546h-72v-542q0 -62 35.5 -98t90.5 -36q54 0 90 36t36 98zM185 699l-35 120h-65l60 -120h40z" />
    <glyph glyph-name="Uacute" unicode="&#xda;" horiz-adv-x="320" 
d="M286 124v542h-70v-546q0 -62 -55 -62t-55 62v546h-72v-542q0 -62 35.5 -98t90.5 -36q54 0 90 36t36 98zM239 819h-65l-35 -120h40z" />
    <glyph glyph-name="Ucircumflex" unicode="&#xdb;" horiz-adv-x="320" 
d="M286 124v542h-70v-546q0 -62 -55 -62t-55 62v546h-72v-542q0 -62 35.5 -98t90.5 -36q54 0 90 36t36 98zM259 706v20q-20 0 -41 19t-31 61h-47q-10 -42 -31 -61t-41 -19v-20q8 -2 14.5 -4t14.5 -2q24 0 41 14t24 46q6 -32 23.5 -46t40.5 -14q7 0 16 2t17 4z" />
    <glyph glyph-name="Udieresis" unicode="&#xdc;" horiz-adv-x="320" 
d="M286 124v542h-70v-546q0 -62 -55 -62t-55 62v546h-72v-542q0 -62 35.5 -98t90.5 -36q54 0 90 36t36 98zM235 719v82h-54v-82h54zM144 719v82h-55v-82h55z" />
    <glyph glyph-name="Yacute" unicode="&#xdd;" horiz-adv-x="284" 
d="M283 666h-69l-71 -310l-71 310h-72l103 -403v-263h72v263zM224 819h-65l-35 -120h40z" />
    <glyph glyph-name="Thorn" unicode="&#xde;" horiz-adv-x="297" 
d="M280 279v142q0 33 -8.5 56.5t-23.5 38t-35.5 21t-43.5 6.5h-59v123h-73v-666h73v158h59q23 0 43.5 6.5t35.5 21t23.5 37.5t8.5 56zM208 272q0 -48 -39 -48h-59v251h59q39 0 39 -50v-153z" />
    <glyph glyph-name="germandbls" unicode="&#xdf;" horiz-adv-x="268" 
d="M239 81v196q0 29 -11 47t-31 29q18 10 29 30t11 45v114q0 60 -26 92t-77 32q-49 0 -74 -34t-25 -94v-538h61v553q0 23 9 36.5t31 13.5q20 0 30 -13.5t10 -35.5v-136q0 -19 -11 -30t-34 -11v-46q47 0 47 -40v-222q0 -19 -14.5 -28.5t-34.5 -9.5v-31q10 -8 27 -8
q36 0 59.5 22.5t23.5 66.5z" />
    <glyph glyph-name="agrave" unicode="&#xe0;" horiz-adv-x="253" 
d="M232 -8v48q-15 0 -15 22v298q0 51 -23 82t-70 31q-45 0 -68.5 -30t-23.5 -78v-49h55v45q0 24 6.5 36.5t28.5 12.5q20 0 28 -12.5t8 -35.5v-76q-27 -13 -52 -29t-44 -35.5t-30 -44t-11 -53.5v-22q0 -51 21 -80.5t59 -29.5q21 0 39 11.5t29 31.5q5 -23 18.5 -33t29.5 -10
h15zM158 111q0 -24 -13 -42.5t-32 -18.5q-20 0 -27.5 14t-7.5 36v31q0 27 20 54t60 41v-115zM143 521l-35 120h-65l60 -120h40z" />
    <glyph glyph-name="aacute" unicode="&#xe1;" horiz-adv-x="253" 
d="M232 -8v48q-15 0 -15 22v298q0 51 -23 82t-70 31q-45 0 -68.5 -30t-23.5 -78v-49h55v45q0 24 6.5 36.5t28.5 12.5q20 0 28 -12.5t8 -35.5v-76q-27 -13 -52 -29t-44 -35.5t-30 -44t-11 -53.5v-22q0 -51 21 -80.5t59 -29.5q21 0 39 11.5t29 31.5q5 -23 18.5 -33t29.5 -10
h15zM158 111q0 -24 -13 -42.5t-32 -18.5q-20 0 -27.5 14t-7.5 36v31q0 27 20 54t60 41v-115zM202 641h-65l-35 -120h40z" />
    <glyph glyph-name="acircumflex" unicode="&#xe2;" horiz-adv-x="253" 
d="M232 -8v48q-15 0 -15 22v298q0 51 -23 82t-70 31q-45 0 -68.5 -30t-23.5 -78v-49h55v45q0 24 6.5 36.5t28.5 12.5q20 0 28 -12.5t8 -35.5v-76q-27 -13 -52 -29t-44 -35.5t-30 -44t-11 -53.5v-22q0 -51 21 -80.5t59 -29.5q21 0 39 11.5t29 31.5q5 -23 18.5 -33t29.5 -10
h15zM158 111q0 -24 -13 -42.5t-32 -18.5q-20 0 -27.5 14t-7.5 36v31q0 27 20 54t60 41v-115zM222 528v20q-20 0 -41 19t-31 61h-47q-10 -42 -31 -61t-41 -19v-20q8 -2 14.5 -4t14.5 -2q24 0 41 14t24 46q6 -32 23.5 -46t40.5 -14q7 0 16 2t17 4z" />
    <glyph glyph-name="atilde" unicode="&#xe3;" horiz-adv-x="253" 
d="M232 -8v48q-15 0 -15 22v298q0 51 -23 82t-70 31q-45 0 -68.5 -30t-23.5 -78v-49h55v45q0 24 6.5 36.5t28.5 12.5q20 0 28 -12.5t8 -35.5v-76q-27 -13 -52 -29t-44 -35.5t-30 -44t-11 -53.5v-22q0 -51 21 -80.5t59 -29.5q21 0 39 11.5t29 31.5q5 -23 18.5 -33t29.5 -10
h15zM158 111q0 -24 -13 -42.5t-32 -18.5q-20 0 -27.5 14t-7.5 36v31q0 27 20 54t60 41v-115zM216 588q0 18 -9 31h-30v-25q0 -16 -14 -16q-6 0 -16 6t-21 13.5t-24 14t-25 6.5q-24 0 -35.5 -16t-11.5 -43q0 -18 9 -31h30v25q0 16 14 16q6 0 16 -6.5t21.5 -14t23.5 -14
t24 -6.5q25 0 36.5 16t11.5 44z" />
    <glyph glyph-name="adieresis" unicode="&#xe4;" horiz-adv-x="253" 
d="M232 -8v48q-15 0 -15 22v298q0 51 -23 82t-70 31q-45 0 -68.5 -30t-23.5 -78v-49h55v45q0 24 6.5 36.5t28.5 12.5q20 0 28 -12.5t8 -35.5v-76q-27 -13 -52 -29t-44 -35.5t-30 -44t-11 -53.5v-22q0 -51 21 -80.5t59 -29.5q21 0 39 11.5t29 31.5q5 -23 18.5 -33t29.5 -10
h15zM158 111q0 -24 -13 -42.5t-32 -18.5q-20 0 -27.5 14t-7.5 36v31q0 27 20 54t60 41v-115zM196 541v82h-54v-82h54zM105 541v82h-55v-82h55z" />
    <glyph glyph-name="aring" unicode="&#xe5;" horiz-adv-x="253" 
d="M232 -8v48q-15 0 -15 22v298q0 51 -23 82t-70 31q-45 0 -68.5 -30t-23.5 -78v-49h55v45q0 24 6.5 36.5t28.5 12.5q20 0 28 -12.5t8 -35.5v-76q-27 -13 -52 -29t-44 -35.5t-30 -44t-11 -53.5v-22q0 -51 21 -80.5t59 -29.5q21 0 39 11.5t29 31.5q5 -23 18.5 -33t29.5 -10
h15zM158 111q0 -24 -13 -42.5t-32 -18.5q-20 0 -27.5 14t-7.5 36v31q0 27 20 54t60 41v-115zM179 583q0 25 -15 43.5t-40 18.5q-24 0 -40 -18.5t-16 -43.5q0 -24 16 -42.5t40 -18.5q25 0 40 18.5t15 42.5zM152 583q0 -17 -7.5 -26.5t-20.5 -9.5t-20 9.5t-7 26.5q0 36 27 36
q28 0 28 -36z" />
    <glyph glyph-name="ae" unicode="&#xe6;" horiz-adv-x="376" 
d="M349 113v50h-54v-58q0 -24 -8 -38t-30 -14q-21 0 -31 14t-10 38v119h133v126q0 55 -25 89t-62 34q-26 0 -44 -12.5t-30 -35.5q-11 23 -27 35.5t-43 12.5q-39 0 -62 -30t-23 -78v-49h52v45q0 24 8 37t29 13q22 0 29.5 -14t7.5 -37v-74q-27 -13 -52 -29t-44 -35.5
t-30.5 -44t-11.5 -53.5v-22q0 -57 22.5 -83.5t62.5 -26.5q51 0 79 47q12 -25 31.5 -36t45.5 -11q18 0 33.5 8.5t27.5 24t19 38t7 50.5zM295 270h-79v88q0 24 10 38.5t31 14.5q22 0 30 -14.5t8 -38.5v-88zM159 111q0 -24 -12.5 -42.5t-32.5 -18.5t-27.5 14t-7.5 36v31
q0 27 20 54t60 41v-115z" />
    <glyph glyph-name="ccedilla" unicode="&#xe7;" horiz-adv-x="244" 
d="M106 -6l-47 -73l20 -15q14 16 31 16q14 0 21 -7t7 -24v-11q0 -29 -28 -29h-15v-22q2 -2 9 -4.5t16 -2.5q29 0 46.5 18.5t17.5 44.5t-14.5 43.5t-43.5 17.5q-6 0 -12.5 -1t-11.5 -4l33 52q43 3 65 35t22 85v49h-52v-60q0 -22 -10 -34.5t-30 -12.5t-30.5 12.5t-10.5 35.5
v258q0 23 10.5 36.5t30.5 13.5t30 -14t10 -35v-61h52v50q0 55 -24 88.5t-71 33.5q-44 0 -71 -34t-27 -89v-236q0 -49 21 -80.5t56 -39.5z" />
    <glyph glyph-name="egrave" unicode="&#xe8;" horiz-adv-x="248" 
d="M222 113v50h-54v-58q0 -24 -9 -38t-29 -14q-22 0 -31.5 14t-9.5 38v119h133v126q0 55 -24.5 89t-69.5 34q-44 0 -71.5 -34t-27.5 -89v-236q0 -56 27.5 -89t71.5 -33q45 0 69.5 32.5t24.5 88.5zM168 270h-79v88q0 24 9.5 38.5t31.5 14.5q20 0 29 -14.5t9 -38.5v-88z
M147 521l-35 120h-65l60 -120h40z" />
    <glyph glyph-name="eacute" unicode="&#xe9;" horiz-adv-x="248" 
d="M222 113v50h-54v-58q0 -24 -9 -38t-29 -14q-22 0 -31.5 14t-9.5 38v119h133v126q0 55 -24.5 89t-69.5 34q-44 0 -71.5 -34t-27.5 -89v-236q0 -56 27.5 -89t71.5 -33q45 0 69.5 32.5t24.5 88.5zM168 270h-79v88q0 24 9.5 38.5t31.5 14.5q20 0 29 -14.5t9 -38.5v-88z
M207 641h-65l-35 -120h40z" />
    <glyph glyph-name="ecircumflex" unicode="&#xea;" horiz-adv-x="248" 
d="M222 113v50h-54v-58q0 -24 -9 -38t-29 -14q-22 0 -31.5 14t-9.5 38v119h133v126q0 55 -24.5 89t-69.5 34q-44 0 -71.5 -34t-27.5 -89v-236q0 -56 27.5 -89t71.5 -33q45 0 69.5 32.5t24.5 88.5zM168 270h-79v88q0 24 9.5 38.5t31.5 14.5q20 0 29 -14.5t9 -38.5v-88z
M222 528v20q-20 0 -41 19t-31 61h-47q-10 -42 -31 -61t-41 -19v-20q8 -2 14.5 -4t14.5 -2q24 0 41 14t24 46q6 -32 23.5 -46t40.5 -14q7 0 16 2t17 4z" />
    <glyph glyph-name="edieresis" unicode="&#xeb;" horiz-adv-x="248" 
d="M222 113v50h-54v-58q0 -24 -9 -38t-29 -14q-22 0 -31.5 14t-9.5 38v119h133v126q0 55 -24.5 89t-69.5 34q-44 0 -71.5 -34t-27.5 -89v-236q0 -56 27.5 -89t71.5 -33q45 0 69.5 32.5t24.5 88.5zM168 270h-79v88q0 24 9.5 38.5t31.5 14.5q20 0 29 -14.5t9 -38.5v-88z
M198 541v82h-54v-82h54zM107 541v82h-55v-82h55z" />
    <glyph glyph-name="igrave" unicode="&#xec;" horiz-adv-x="127" 
d="M94 0v468h-61v-468h61zM82 521l-35 120h-65l60 -120h40z" />
    <glyph glyph-name="iacute" unicode="&#xed;" horiz-adv-x="127" 
d="M94 0v468h-61v-468h61zM143 641h-65l-35 -120h40z" />
    <glyph glyph-name="icircumflex" unicode="&#xee;" horiz-adv-x="127" 
d="M94 0v468h-61v-468h61zM162 528v20q-20 0 -41 19t-31 61h-47q-10 -42 -31 -61t-41 -19v-20q8 -2 14.5 -4t14.5 -2q24 0 41 14t24 46q6 -32 23.5 -46t40.5 -14q7 0 16 2t17 4z" />
    <glyph glyph-name="idieresis" unicode="&#xef;" horiz-adv-x="127" 
d="M94 0v468h-61v-468h61zM136 541v82h-54v-82h54zM45 541v82h-55v-82h55z" />
    <glyph glyph-name="eth" unicode="&#xf0;" horiz-adv-x="259" 
d="M184 622q-8 12 -16 23t-19 21h-69v-3q35 -33 55 -68l-42 -23l16 -42l44 24q9 -27 13 -58t4 -70q-21 45 -68 45q-33 0 -53 -27.5t-20 -69.5v-261q0 -56 28.5 -88.5t71.5 -32.5t72.5 32.5t29.5 88.5v306q0 52 -6.5 91.5t-20.5 71.5l30 17l-17 42zM89 101v260q0 51 40 51
q19 0 30 -14t11 -37v-260q0 -21 -11 -33t-30 -12q-18 0 -29 12t-11 33z" />
    <glyph glyph-name="ntilde" unicode="&#xf1;" 
d="M237 0v376q0 44 -19.5 70t-54.5 26q-23 0 -42 -15.5t-30 -50.5l-4 62h-54v-468h61v355q0 20 11.5 39.5t32.5 19.5q17 0 27.5 -13t10.5 -34v-367h61zM221 588q0 18 -9 31h-30v-25q0 -16 -14 -16q-6 0 -16 6t-21 13.5t-24 14t-25 6.5q-24 0 -35.5 -16t-11.5 -43
q0 -18 9 -31h30v25q0 16 14 16q6 0 16 -6.5t21.5 -14t23.5 -14t24 -6.5q25 0 36.5 16t11.5 44z" />
    <glyph glyph-name="ograve" unicode="&#xf2;" horiz-adv-x="259" 
d="M230 114v236q0 55 -28 89t-72 34q-45 0 -73 -34t-28 -89v-236q0 -56 28 -89t73 -33q44 0 72 33t28 89zM170 102q0 -22 -10 -34.5t-30 -12.5t-30 12.5t-10 34.5v260q0 21 10 35t30 14t30 -14t10 -35v-260zM150 521l-35 120h-65l60 -120h40z" />
    <glyph glyph-name="oacute" unicode="&#xf3;" horiz-adv-x="259" 
d="M230 114v236q0 55 -28 89t-72 34q-45 0 -73 -34t-28 -89v-236q0 -56 28 -89t73 -33q44 0 72 33t28 89zM170 102q0 -22 -10 -34.5t-30 -12.5t-30 12.5t-10 34.5v260q0 21 10 35t30 14t30 -14t10 -35v-260zM210 641h-65l-35 -120h40z" />
    <glyph glyph-name="ocircumflex" unicode="&#xf4;" horiz-adv-x="259" 
d="M230 114v236q0 55 -28 89t-72 34q-45 0 -73 -34t-28 -89v-236q0 -56 28 -89t73 -33q44 0 72 33t28 89zM170 102q0 -22 -10 -34.5t-30 -12.5t-30 12.5t-10 34.5v260q0 21 10 35t30 14t30 -14t10 -35v-260zM227 528v20q-20 0 -41 19t-31 61h-47q-10 -42 -31 -61t-41 -19
v-20q8 -2 14.5 -4t14.5 -2q24 0 41 14t24 46q6 -32 23.5 -46t40.5 -14q7 0 16 2t17 4z" />
    <glyph glyph-name="otilde" unicode="&#xf5;" horiz-adv-x="259" 
d="M230 114v236q0 55 -28 89t-72 34q-45 0 -73 -34t-28 -89v-236q0 -56 28 -89t73 -33q44 0 72 33t28 89zM170 102q0 -22 -10 -34.5t-30 -12.5t-30 12.5t-10 34.5v260q0 21 10 35t30 14t30 -14t10 -35v-260zM219 588q0 18 -9 31h-30v-25q0 -16 -14 -16q-6 0 -16 6t-21 13.5
t-24 14t-25 6.5q-24 0 -35.5 -16t-11.5 -43q0 -18 9 -31h30v25q0 16 14 16q6 0 16 -6.5t21.5 -14t23.5 -14t24 -6.5q25 0 36.5 16t11.5 44z" />
    <glyph glyph-name="odieresis" unicode="&#xf6;" horiz-adv-x="259" 
d="M230 114v236q0 55 -28 89t-72 34q-45 0 -73 -34t-28 -89v-236q0 -56 28 -89t73 -33q44 0 72 33t28 89zM170 102q0 -22 -10 -34.5t-30 -12.5t-30 12.5t-10 34.5v260q0 21 10 35t30 14t30 -14t10 -35v-260zM202 541v82h-54v-82h54zM111 541v82h-55v-82h55z" />
    <glyph glyph-name="oslash" unicode="&#xf8;" horiz-adv-x="259" 
d="M257 465l-25 17l-24 -51q-14 20 -34 31t-44 11q-45 0 -73 -34t-28 -89v-236q0 -26 6 -47l-5 -10t-11 -23t-11 -23.5l-5 -10.5l24 -18l24 51q28 -41 79 -41q44 0 72 33t28 89v236q0 25 -6 45zM170 351l-80 -168v179q0 21 10 35t30 14t30 -14t10 -35v-11zM170 102
q0 -22 -10 -34.5t-30 -12.5t-30 12.5t-10 34.5v12l80 168v-180z" />
    <glyph glyph-name="ugrave" unicode="&#xf9;" 
d="M236 0v468h-62v-360q0 -19 -11 -38.5t-32 -19.5q-17 0 -27.5 12.5t-10.5 33.5v372h-61v-379q0 -45 19.5 -71.5t54.5 -26.5q23 0 42 15t29 47l4 -53h55zM155 521l-35 120h-65l60 -120h40z" />
    <glyph glyph-name="uacute" unicode="&#xfa;" 
d="M236 0v468h-62v-360q0 -19 -11 -38.5t-32 -19.5q-17 0 -27.5 12.5t-10.5 33.5v372h-61v-379q0 -45 19.5 -71.5t54.5 -26.5q23 0 42 15t29 47l4 -53h55zM214 641h-65l-35 -120h40z" />
    <glyph glyph-name="ucircumflex" unicode="&#xfb;" 
d="M236 0v468h-62v-360q0 -19 -11 -38.5t-32 -19.5q-17 0 -27.5 12.5t-10.5 33.5v372h-61v-379q0 -45 19.5 -71.5t54.5 -26.5q23 0 42 15t29 47l4 -53h55zM230 528v20q-20 0 -41 19t-31 61h-47q-10 -42 -31 -61t-41 -19v-20q8 -2 14.5 -4t14.5 -2q24 0 41 14t24 46
q6 -32 23.5 -46t40.5 -14q7 0 16 2t17 4z" />
    <glyph glyph-name="udieresis" unicode="&#xfc;" 
d="M236 0v468h-62v-360q0 -19 -11 -38.5t-32 -19.5q-17 0 -27.5 12.5t-10.5 33.5v372h-61v-379q0 -45 19.5 -71.5t54.5 -26.5q23 0 42 15t29 47l4 -53h55zM205 541v82h-54v-82h54zM114 541v82h-55v-82h55z" />
    <glyph glyph-name="yacute" unicode="&#xfd;" horiz-adv-x="230" 
d="M219 468h-60l-33 -262l-13 -103l-11 103l-33 262h-60l76 -473l-10 -70q-4 -20 -12 -30t-28 -10h-12v-57h15q25 0 41.5 8t27 23.5t17.5 39t12 54.5zM196 641h-65l-35 -120h40z" />
    <glyph glyph-name="thorn" unicode="&#xfe;" horiz-adv-x="264" 
d="M236 92v287q0 45 -20 71.5t-52 26.5q-48 0 -70 -45v234h-61v-835h61v210q22 -46 70 -46q32 0 52 26.5t20 70.5zM176 108q0 -26 -11 -39t-29 -13q-20 0 -31 13.5t-11 36.5v260q0 23 11 37t31 14q18 0 29 -13.5t11 -38.5v-257z" />
    <glyph glyph-name="ydieresis" unicode="&#xff;" horiz-adv-x="230" 
d="M219 468h-60l-33 -262l-13 -103l-11 103l-33 262h-60l76 -473l-10 -70q-4 -20 -12 -30t-28 -10h-12v-57h15q25 0 41.5 8t27 23.5t17.5 39t12 54.5zM189 541v82h-54v-82h54zM98 541v82h-55v-82h55z" />
    <glyph glyph-name="dotlessi" unicode="&#x131;" horiz-adv-x="127" 
d="M94 0v468h-61v-468h61z" />
    <glyph glyph-name="Lslash" unicode="&#x141;" horiz-adv-x="273" 
d="M136 346l74 93l-19 28l-55 -67v266h-71v-357l-74 -93l19 -28l55 67v-255h208v69h-137v277z" />
    <glyph glyph-name="lslash" unicode="&#x142;" horiz-adv-x="175" 
d="M193 454l-22 25l-53 -77v264h-61v-348l-77 -109l23 -25l54 78v-262h61v346z" />
    <glyph glyph-name="OE" unicode="&#x152;" horiz-adv-x="443" 
d="M422 0v67h-139v246h101v64h-101v222h139v67h-265q-66 0 -96 -39t-30 -113v-362q0 -74 30 -113t96 -39h265zM211 69h-53q-29 0 -42 17.5t-13 57.5v377q0 41 13 58t42 17h53v-527z" />
    <glyph glyph-name="oe" unicode="&#x153;" horiz-adv-x="387" 
d="M361 113v50h-54v-58q0 -24 -9 -38t-30 -14t-30.5 14t-9.5 38v119h133v126q0 55 -25 89t-63 34q-26 0 -44.5 -13t-29.5 -36q-25 49 -76 49q-18 0 -35 -9t-30 -25t-21 -39t-8 -50v-236q0 -56 28.5 -89t65.5 -33q51 0 76 47q23 -47 74 -47q38 0 63 32.5t25 88.5zM307 270
h-79v88q0 24 9.5 38.5t30.5 14.5t30 -14.5t9 -38.5v-88zM169 102q0 -22 -10 -34.5t-30 -12.5q-19 0 -29.5 12.5t-10.5 34.5v260q0 21 10.5 35t29.5 14q20 0 30 -14t10 -35v-260z" />
    <glyph glyph-name="Scaron" unicode="&#x160;" horiz-adv-x="296" 
d="M275 135q0 57 -25 110.5t-69 110.5q-22 29 -38 53t-26 46.5t-15 45t-5 49.5q0 61 54 61q27 0 40 -19t13 -54v-73h68v79q0 59 -32.5 95.5t-86.5 36.5q-32 0 -55.5 -11t-39.5 -30.5t-23.5 -46t-7.5 -57.5q0 -29 9.5 -60t24 -60.5t32.5 -57t36 -49.5q39 -51 57.5 -94
t18.5 -91q0 -32 -14 -50t-44 -18q-26 0 -41 20t-15 53v73h-70v-76q0 -58 34 -94.5t93 -36.5q23 0 45.5 7.5t40.5 25t29.5 45t11.5 67.5zM245 779v20q-15 6 -29 6q-24 0 -41 -14.5t-24 -45.5q-6 31 -23.5 45.5t-40.5 14.5q-7 0 -16 -1.5t-17 -4.5v-20q20 0 41 -19t31 -60h47
q10 41 31 60t41 19z" />
    <glyph glyph-name="scaron" unicode="&#x161;" horiz-adv-x="235" 
d="M216 107q0 48 -18.5 84.5t-53.5 66.5q-35 32 -49.5 56t-14.5 53q0 19 10.5 31.5t30.5 12.5t30.5 -12t10.5 -32v-46h51v35q0 56 -22 86.5t-72 30.5q-42 0 -69 -30.5t-27 -84.5q0 -45 24.5 -82t57.5 -66q18 -18 28.5 -32t16.5 -26.5t7.5 -25.5t1.5 -29q0 -48 -44 -48
q-42 0 -42 53v41h-52v-32q0 -56 23.5 -87.5t73.5 -31.5q45 0 71.5 32t26.5 83zM214 601v20q-15 6 -29 6q-24 0 -41 -14.5t-24 -45.5q-6 31 -23.5 45.5t-40.5 14.5q-7 0 -16 -1.5t-17 -4.5v-20q20 0 41 -19t31 -60h47q10 41 31 60t41 19z" />
    <glyph glyph-name="Ydieresis" unicode="&#x178;" horiz-adv-x="284" 
d="M283 666h-69l-71 -310l-71 310h-72l103 -403v-263h72v263zM215 719v82h-54v-82h54zM124 719v82h-55v-82h55z" />
    <glyph glyph-name="Zcaron" unicode="&#x17d;" 
d="M256 628v38h-235v-69h156l-165 -559v-38h235v67h-155zM232 779v20q-15 6 -29 6q-24 0 -41 -14.5t-24 -45.5q-6 31 -23.5 45.5t-40.5 14.5q-7 0 -16 -1.5t-17 -4.5v-20q20 0 41 -19t31 -60h47q10 41 31 60t41 19z" />
    <glyph glyph-name="zcaron" unicode="&#x17e;" horiz-adv-x="211" 
d="M196 436v32h-177v-58h112l-119 -378v-32h178v58h-112zM202 601v20q-15 6 -29 6q-24 0 -41 -14.5t-24 -45.5q-6 31 -23.5 45.5t-40.5 14.5q-7 0 -16 -1.5t-17 -4.5v-20q20 0 41 -19t31 -60h47q10 41 31 60t41 19z" />
    <glyph glyph-name="florin" unicode="&#x192;" horiz-adv-x="199" 
d="M135 376v191q0 22 6 32.5t23 10.5h10v56h-14q-54 0 -73 -34.5t-19 -97.5v-158h-48v-61h48v-233q0 -24 -6.5 -33.5t-23.5 -9.5h-9v-56h13q55 0 74 34.5t19 97.5v200h49v61h-49z" />
    <glyph glyph-name="circumflex" unicode="&#x2c6;" horiz-adv-x="204" 
d="M198 528v20q-20 0 -41 19t-31 61h-47q-10 -42 -31 -61t-41 -19v-20q8 -2 14.5 -4t14.5 -2q24 0 41 14t24 46q6 -32 23.5 -46t40.5 -14q7 0 16 2t17 4z" />
    <glyph glyph-name="caron" unicode="&#x2c7;" horiz-adv-x="205" 
d="M198 601v20q-15 6 -29 6q-24 0 -41 -14.5t-24 -45.5q-6 31 -23.5 45.5t-40.5 14.5q-7 0 -16 -1.5t-17 -4.5v-20q20 0 41 -19t31 -60h47q10 41 31 60t41 19z" />
    <glyph glyph-name="breve" unicode="&#x2d8;" horiz-adv-x="170" 
d="M163 589q0 20 -7 33h-34v-13q0 -18 -8.5 -31t-29.5 -13q-20 0 -28 13t-8 31v13h-34q-8 -14 -8 -33q0 -29 22.5 -47.5t55.5 -18.5q35 0 57 18.5t22 47.5z" />
    <glyph glyph-name="dotaccent" unicode="&#x2d9;" horiz-adv-x="159" 
d="M107 541v82h-54v-82h54z" />
    <glyph glyph-name="ring" unicode="&#x2da;" horiz-adv-x="122" 
d="M116 583q0 25 -15 43.5t-40 18.5q-24 0 -40 -18.5t-16 -43.5q0 -24 16 -42.5t40 -18.5q25 0 40 18.5t15 42.5zM89 583q0 -17 -7.5 -26.5t-20.5 -9.5t-20 9.5t-7 26.5q0 36 27 36q28 0 28 -36z" />
    <glyph glyph-name="ogonek" unicode="&#x2db;" horiz-adv-x="120" 
d="M109 -131v23h-15q-52 0 -52 38q0 47 53 79l-6 10q-45 -17 -66 -41.5t-21 -53.5t18 -46.5t48 -17.5t41 9z" />
    <glyph glyph-name="tilde" unicode="&#x2dc;" horiz-adv-x="199" 
d="M193 588q0 18 -9 31h-30v-25q0 -16 -14 -16q-6 0 -16 6t-21 13.5t-24 14t-25 6.5q-24 0 -35.5 -16t-11.5 -43q0 -18 9 -31h30v25q0 16 14 16q6 0 16 -6.5t21.5 -14t23.5 -14t24 -6.5q25 0 36.5 16t11.5 44z" />
    <glyph glyph-name="hungarumlaut" unicode="&#x2dd;" horiz-adv-x="177" 
d="M181 641h-54l-35 -120h37zM94 641h-54l-26 -120h36z" />
    <glyph glyph-name="Omega" unicode="&#x3a9;" horiz-adv-x="315" 
d="M151 408v58h-45v94q0 23 9 35.5t29 12.5h14v58h-16q-50 0 -72 -33.5t-22 -98.5v-68h-36v-58h36v-408h61v408h42zM308 408v58h-45v94q0 23 9 35.5t29 12.5h14v58h-16q-50 0 -72 -33.5t-22 -98.5v-68h-36v-58h36v-408h61v408h42z" />
    <glyph glyph-name="pi" unicode="&#x3c0;" horiz-adv-x="543" 
d="M526 312q0 54 -19.5 101t-53.5 82t-80.5 55.5t-101.5 20.5t-101.5 -20.5t-80.5 -55.5t-53 -82t-19 -101q0 -53 19 -100t53 -82t80.5 -55.5t101.5 -20.5t101.5 20.5t80.5 55.5t53.5 82t19.5 100zM486 312q0 -46 -15.5 -86t-44 -70t-68 -47.5t-87.5 -17.5q-47 0 -86.5 17.5
t-68 47.5t-44 70t-15.5 86t15.5 86.5t44 70.5t68 47t86.5 17q48 0 87.5 -17t68 -47t44 -70.5t15.5 -86.5zM366 349v24q0 27 -15.5 44.5t-53.5 17.5h-92v-242h43v92h49q38 0 53.5 18.5t15.5 45.5zM321 348q0 -12 -6 -20t-22 -8h-45v82h45q16 0 22 -7.5t6 -21.5v-25z" />
    <glyph glyph-name="endash" unicode="&#x2013;" horiz-adv-x="425" 
d="M363 285v60h-300v-60h300z" />
    <glyph glyph-name="emdash" unicode="&#x2014;" horiz-adv-x="638" 
d="M576 285v60h-513v-60h513z" />
    <glyph glyph-name="quoteleft" unicode="&#x2018;" horiz-adv-x="111" 
d="M25 580v-90h60v101h-27q0 54 33 54v21q-36 0 -51 -24t-15 -62z" />
    <glyph glyph-name="quoteright" unicode="&#x2019;" horiz-adv-x="111" 
d="M86 576v90h-60v-100h27q0 -55 -33 -55v-21q36 0 51 24t15 62z" />
    <glyph glyph-name="quotesinglbase" unicode="&#x201a;" horiz-adv-x="111" 
d="M86 10v90h-60v-100h27q0 -55 -33 -55v-21q36 0 51 24t15 62z" />
    <glyph glyph-name="quotedblleft" unicode="&#x201c;" horiz-adv-x="198" 
d="M25 580v-90h60v101h-27q0 54 33 54v21q-36 0 -51 -24t-15 -62zM112 580v-90h60v101h-28q0 54 33 54v21q-36 0 -50.5 -24t-14.5 -62z" />
    <glyph glyph-name="quotedblright" unicode="&#x201d;" horiz-adv-x="198" 
d="M172 576v90h-60v-100h28q0 -55 -34 -55v-21q36 0 51 24t15 62zM86 576v90h-60v-100h27q0 -55 -33 -55v-21q36 0 51 24t15 62z" />
    <glyph glyph-name="quotedblbase" unicode="&#x201e;" horiz-adv-x="198" 
d="M172 10v90h-60v-100h28q0 -55 -34 -55v-21q36 0 51 24t15 62zM86 10v90h-60v-100h27q0 -55 -33 -55v-21q36 0 51 24t15 62z" />
    <glyph glyph-name="dagger" unicode="&#x2020;" horiz-adv-x="274" 
d="M265 438v32q0 5 -3.5 7t-6.5 2q-6 0 -19 -0.5t-27.5 -1.5t-29 -2.5t-24.5 -4.5q2 9 4 37.5t3 59.5t1.5 57t0.5 31q0 4 -2.5 7.5t-7.5 3.5h-35q-5 0 -7 -3.5t-2 -7.5q0 -5 0.5 -31t1.5 -57t2.5 -59.5t4.5 -37.5q-10 3 -24.5 4.5t-29 2.5t-27.5 1.5t-19 0.5q-10 0 -10 -9
v-32q0 -10 10 -10q5 0 18 0.5t28 2l30 3t24 4.5q-2 -9 -4 -36t-3 -57t-1.5 -55t-0.5 -30q0 -37 0.5 -86.5t1.5 -97t2 -85.5t2 -52q0 -4 2.5 -7.5t7.5 -3.5h22q5 0 6.5 3.5t1.5 7.5q2 14 3.5 52t2.5 85.5t1.5 97t0.5 86.5q0 5 -0.5 30t-1.5 55t-3 57t-4 36q9 -3 23.5 -4.5
t29.5 -3t28 -2t19 -0.5q3 0 6.5 2.5t3.5 7.5z" />
    <glyph glyph-name="daggerdbl" unicode="&#x2021;" horiz-adv-x="274" 
d="M265 124v32q0 5 -3.5 7.5t-6.5 2.5q-6 0 -19 -0.5t-28 -2t-29.5 -3.5t-23.5 -4q2 9 4 30.5t3 44t1.5 41.5t0.5 25t-0.5 25t-1.5 41.5t-3 44t-4 30.5q9 -3 23.5 -4.5t29.5 -3t28 -2t19 -0.5q3 0 6.5 2.5t3.5 7.5v32q0 5 -3.5 7t-6.5 2q-6 0 -19 -0.5t-27.5 -1.5t-29 -2.5
t-24.5 -4.5q2 9 4 37.5t3 59.5t1.5 57t0.5 31q0 4 -2 7.5t-7 3.5h-36q-5 0 -7 -3.5t-2 -7.5q0 -5 0.5 -31t1.5 -57t2.5 -59.5t4.5 -37.5q-10 3 -24.5 4.5t-29 2.5t-27.5 1.5t-19 0.5q-10 0 -10 -9v-32q0 -10 10 -10q5 0 18 0.5t28 2l30 3t24 4.5q-2 -9 -4 -30.5t-3 -44
t-1.5 -41.5t-0.5 -25t0.5 -25t1.5 -41.5t3 -44t4 -30.5q-9 2 -24 4t-30 3.5t-28 2t-18 0.5q-10 0 -10 -10v-32q0 -10 10 -10q6 0 19 0.5t27.5 2l29 3t24.5 4.5q-3 -10 -4.5 -38t-2.5 -59t-1.5 -57t-0.5 -31q0 -4 2 -7.5t7 -3.5h36q5 0 7 3.5t2 7.5q0 5 -0.5 31t-1.5 57
t-3 59t-4 38q10 -3 24.5 -4.5l29 -3t27.5 -2t19 -0.5q3 0 6.5 2.5t3.5 7.5z" />
    <glyph glyph-name="bullet" unicode="&#x2022;" horiz-adv-x="215" 
d="M198 333q0 43 -26 67t-64 24q-39 0 -65 -24t-26 -67q0 -44 26 -68t65 -24q38 0 64 24t26 68z" />
    <glyph glyph-name="ellipsis" unicode="&#x2026;" horiz-adv-x="349" 
d="M91 0v100h-60v-100h60zM204 0v100h-60v-100h60zM318 0v100h-60v-100h60z" />
    <glyph glyph-name="perthousand" unicode="&#x2030;" horiz-adv-x="579" 
d="M561 73v166q0 41 -20 63.5t-50 22.5t-50 -22.5t-20 -63.5v-166q0 -40 20 -63t50 -23t50 23t20 63zM516 59q0 -11 -7 -19t-18 -8t-18 8t-7 19v195q0 11 7 18.5t18 7.5t18 -7.5t7 -18.5v-195zM385 73v166q0 41 -20 63.5t-50 22.5t-50 -22.5t-20 -63.5v-166q0 -40 20 -63
t50 -23t50 23t20 63zM340 59q0 -11 -7 -19t-18 -8t-18 8t-7 19v195q0 11 7 18.5t18 7.5t18 -7.5t7 -18.5v-195zM380 664l-27 20l-324 -684l26 -20zM164 425v166q0 40 -20 62.5t-51 22.5q-30 0 -50 -22.5t-20 -62.5v-166q0 -40 20 -63t50 -23q31 0 51 23t20 63zM119 411
q0 -12 -7.5 -19.5t-18.5 -7.5t-18 7.5t-7 19.5v195q0 11 7 18.5t18 7.5t18.5 -7.5t7.5 -18.5v-195z" />
    <glyph glyph-name="guilsinglleft" unicode="&#x2039;" horiz-adv-x="175" 
d="M155 0q0 69 -21 116.5t-56 76.5q35 29 56 77t21 117h-33q-9 -61 -37 -101.5t-70 -63.5v-57q42 -23 70 -63.5t37 -101.5h33z" />
    <glyph glyph-name="guilsinglright" unicode="&#x203a;" horiz-adv-x="175" 
d="M160 165v57q-42 23 -70 63.5t-37 101.5h-32q0 -69 20.5 -117t56.5 -77q-36 -29 -56.5 -76.5t-20.5 -116.5h32q9 61 37 101.5t70 63.5z" />
    <glyph glyph-name="trademark" unicode="&#x2122;" horiz-adv-x="397" 
d="M365 482v184h-53l-26 -102l-13 -49l-12 49l-28 102h-52v-184h34v149l13 -52l28 -97h32l30 97l13 52v-149h34zM149 635v31h-135v-31h49v-153h37v153h49z" />
    <glyph glyph-name="product" unicode="&#x220f;" horiz-adv-x="304" 
d="M215 0h73l-71 299q34 11 48.5 39t14.5 65v143q0 33 -8.5 56t-23.5 37.5t-35.5 20.5t-43.5 6h-132v-666h73v285h39zM110 349v249h58q40 0 40 -47v-148q0 -26 -12.5 -40t-34.5 -14h-51z" />
    <glyph glyph-name="fraction" unicode="&#x2215;" horiz-adv-x="84" 
d="M309 715l-31 22l-501 -786l32 -22z" />
    <glyph glyph-name="radical" unicode="&#x221a;" horiz-adv-x="442" 
d="M151 408v58h-45v94q0 23 9 35.5t29 12.5h14v58h-16q-50 0 -72 -33.5t-22 -98.5v-68h-36v-58h36v-408h61v408h42zM308 408v58h-45v94q0 23 9 35.5t29 12.5h14v58h-16q-50 0 -72 -33.5t-22 -98.5v-68h-36v-58h36v-408h61v408h42zM409 0v666h-61v-666h61z" />
    <glyph glyph-name="approxequal" unicode="&#x2248;" horiz-adv-x="442" 
d="M151 408v58h-45v94q0 23 9 35.5t29 12.5h14v58h-16q-50 0 -72 -33.5t-22 -98.5v-68h-36v-58h36v-408h61v408h42zM308 408v58h-45v94q0 23 9 35.5t29 12.5h14v58h-16q-50 0 -72 -33.5t-22 -98.5v-68h-36v-58h36v-408h61v408h42zM406 532v75h-55v-75h55zM409 0v468h-61
v-468h61z" />
    <glyph glyph-name="notequal" unicode="&#x2260;" horiz-adv-x="494" 
d="M470 0v468h-446v-468h446z" />
    <glyph glyph-name="lessequal" unicode="&#x2264;" horiz-adv-x="328" 
d="M272 136v198l-219 -92v-13z" />
    <glyph glyph-name="greaterequal" unicode="&#x2265;" horiz-adv-x="328" 
d="M282 229v13l-219 92v-198z" />
    <glyph glyph-name="apple" unicode="&#xf8ff;" horiz-adv-x="967" 
d="M868 0v750h-767v-750h767zM859 -104l-6 34h-1l-13 -26l-13 26h-1l-6 -34h6l3 20l10 -21h2l10 21l3 -20h6zM806 -87q0 7 -4.5 12t-11.5 5q-8 0 -13 -5t-5 -13q0 -7 4.5 -12t12.5 -5t12.5 5t4.5 13zM758 -96q-6 -4 -10 -4q-13 0 -13 13q0 5 3.5 8.5t8.5 3.5q6 0 9 -3l2 5
q-5 3 -11 3q-8 0 -13 -5t-5 -13q0 -17 18 -17q7 0 10 3zM702 -71h-7l-9 -14l-11 15l-6 -1l14 -19v-14h6v14zM656 -104v33h-6v-13h-16v13h-6v-33h6v15h16v-15h6zM612 -82q0 5 -4.5 9t-18.5 2v-33h6v10q17 0 17 12zM576 -104l-16 34h-2l-15 -34h6l3 8h14l4 -8h6zM534 -104
l-10 13q7 3 7 10q0 5 -4.5 8.5t-18.5 1.5v-33h6v11h5l8 -11h7zM491 -101v15h-15v-5h9v-7q-4 -2 -6 -2q-13 0 -13 12q0 13 12 13q7 0 11 -4l2 5q-6 4 -12 4q-8 0 -13.5 -5t-5.5 -13t5 -12.5t13 -4.5q7 0 13 4zM447 -87q0 7 -4.5 12t-11.5 5q-8 0 -13 -5t-5 -13q0 -7 4.5 -12
t12.5 -5t12.5 5t4.5 13zM400 -82q0 5 -4.5 9t-18.5 2v-33h6v10q17 0 17 12zM364 -71h-7l-9 -14l-11 15l-6 -1l14 -19v-14h6v14zM323 -71h-30v-5h12v-28h6v28h12v5zM267 -71h-6l-7 -22l-10 23h-1l-10 -23l-7 23l-6 -1l12 -34h1l10 23l11 -23h1zM211 -71h-6l-7 -22l-10 23h-1
l-10 -23l-7 23l-6 -1l12 -34h1l10 23l11 -23h1zM155 -71h-6l-7 -22l-10 23h-1l-10 -23l-7 23l-6 -1l12 -34h1l10 23l11 -23h1zM716 -101q0 4 -4 4t-4 -4t4 -4t4 4zM284 -101q0 4 -4 4t-4 -4t4 -4t4 4zM559 686h-2l-2.5 4.5t-7.5 4.5q-3 0 -3 -3v-23q0 -5 2 -5h3v-2h-17v2h2
q3 0 3 5v23q0 3 -3 3q-5 0 -7.5 -4.5l-2.5 -4.5h-2l0.5 4.5t0.5 7.5q3 -1 18 -1t17 1q1 -3 1 -8v-4zM504 662h-18v2h2q3 0 3 5v10h-17v-10q0 -4 2.5 -4.5l2.5 -0.5v-2h-17v2l2.5 0.5t2.5 4.5v21q0 5 -3 5h-2v2h17v-1v-1h-3q-2 0 -2 -5v-9h17v9q0 5 -3 5h-2v1v1h18v-2h-3
t-3 -5v-21q0 -5 3 -5h3v-2zM439 664v-2h-30l-2 11l2 1l2.5 -4.5t7.5 -4.5h4q4 0 4 3v11h-4q-5 0 -5.5 -3l-0.5 -3h-2v13h2l0.5 -2.5t5.5 -2.5h4v10q0 3 -4 3h-4q-5 0 -7 -4l-2 -4l-2 1l2 10h29v-2h-3q-2 0 -2 -5v-21q0 -5 2 -5h3zM827 618h-685v6h685v-6zM696 540
q0 -12 -8 -17t-15 -5q-14 0 -25.5 11t-11.5 27q0 12 8 17t15 5q14 0 25.5 -11.5t11.5 -26.5zM589 537q0 -8 -6 -13.5t-19 -5.5q-16 0 -16 13q0 10 9 10q7 0 7 -5t-4 -5q-2 0 -3 1t-2 1q-3 0 -3 -3q0 -9 12 -9t12 14q0 10 -6 15q-5 -5 -11 -5q-8 0 -8 6q0 8 16 6q2 2 2 6
q0 12 -10 12q-7 0 -7 -5q0 -2 1.5 -2.5t1.5 -3.5t-4 -3q-5 0 -5 6q0 11 13 11q11 0 16 -5t5 -10q0 -6 -5 -9q14 -5 14 -17zM295 537q0 -8 -6 -13.5t-19 -5.5q-16 0 -16 13q0 10 9 10q7 0 7 -5t-4 -5q-2 0 -3 1t-2 1q-3 0 -3 -3q0 -9 12 -9t12 14q0 10 -6 15q-5 -5 -11 -5
q-8 0 -8 6q0 8 16 6q2 2 2 6q0 12 -10 12q-7 0 -7 -5q0 -2 1.5 -2.5t1.5 -3.5t-4 -3q-5 0 -5 6q0 11 13 11q11 0 16 -5t5 -10q0 -6 -5 -9q14 -5 14 -17zM820 522l1 -3h-29l-1 3l4.5 0.5t2.5 7.5l-3 16h-24l3 -16q2 -7 6 -7.5l4 -0.5l1 -3h-29l-1 3l4.5 0.5t2.5 7.5l-7 35
q-2 7 -6 7.5l-4 0.5l-1 3h29l1 -3l-4.5 -0.5t-2.5 -7.5l3 -15h24l-3 15q-2 7 -5.5 7.5l-3.5 0.5l-1 3h28l1 -3l-4.5 -0.5t-2.5 -7.5l7 -35q2 -7 6 -7.5zM498 519h-29l-1 3l4.5 0.5t2.5 7.5l-3 17h-4q-7 0 -7.5 -5.5l-0.5 -5.5h-3l-5 23h3l2.5 -4.5t9.5 -4.5h4l-3 16
q-1 6 -6 6h-4q-11 0 -12 -6.5l-1 -6.5h-4l0.5 7t-0.5 10h45l1 -3l-4.5 -0.5t-2.5 -7.5l7 -35q2 -7 6 -7.5l4 -0.5zM202 522l1 -3h-29l-1 3l4.5 0.5t2.5 7.5l-3 15q-4 0 -5 -3l-12 -23h-19l-1 3l5 0.5t9 7.5l9 16q-8 1 -13.5 5t-5.5 10q0 15 20 15h27l1 -3l-4.5 -0.5
t-2.5 -7.5l7 -35q2 -7 6 -7.5zM400 521q0 -3 -4 -3q-9 0 -12 7q-8 0 -10 -6.5t-15 -6.5q-5 0 -10 3.5t-5 8.5q0 7 5 7t5 -5q0 -2 -1 -2.5t-1 -2.5q0 -4 5 -4t8.5 6.5t14.5 6.5q-6 6 -8.5 13.5t-3.5 14.5t-2.5 12t-6.5 5t-5 -6t-4 -6q-5 0 -5 5q0 3 4 6.5t9 3.5
q12 0 16.5 -6.5t6 -15t2 -16t4.5 -10.5q7 -1 10 -4t3 -5zM827 475h-685v6h685v-6zM827 378h-36v28h-11v-65h14v-33h-81v33h14v65h-11v-28h-36v62h147v-62zM648 406h-14l-37 -45v-20h15v-33h-81v33h14v19l-37 46h-12v34h62v-34h-10l15 -23l15 23h-11v34h81v-34zM458 308h-81
v33h15v19h-30q-22 0 -34.5 11.5t-12.5 28.5t12.5 28.5t34.5 11.5h96v-34h-14v-65h14v-33zM283 308h-141v61h41v-28h33v21h-24v24h24v20h-33v-28h-41v62h141v-34h-14v-65h14v-33zM827 271h-685v6h685v-6zM728 192q0 -12 -8 -17t-15 -5q-14 0 -25.5 11t-11.5 27q0 12 8 17
t15 5q14 0 25.5 -11.5t11.5 -26.5zM203 217l-2 -2l-4.5 4.5t-7.5 2.5q-9 0 -9 -13q0 -8 5 -25q2 -8 6 -8.5l4 -0.5l1 -4h-28l-1 4l4.5 1t1.5 14q-3 12 -8.5 22.5t-15.5 10.5q-8 0 -8 -6l-3 1q0 6 3.5 9t8.5 3q8 0 13 -6.5t8 -16.5q-1 23 14 23q8 0 11.5 -4t6.5 -9zM823 171
h-29l-1 3l4.5 0.5t2.5 7.5l-3 17h-4q-7 0 -7.5 -5.5l-0.5 -5.5h-3l-5 23h3l2.5 -4.5t9.5 -4.5h4l-3 16q-1 6 -6 6h-4q-11 0 -12 -6.5l-1 -6.5h-4l0.5 7t-0.5 10h45l1 -3l-4.5 -0.5t-2.5 -7.5l7 -35q2 -7 6 -7.5l4 -0.5zM621 225l-5 -0.5t-3 -8.5l5 -22q2 -8 0 -16t-19 -8
q-14 0 -20 9.5t-8 17.5l-4 19q-2 8 -6.5 8.5l-4.5 0.5l-1 3h24v-3l-4.5 -0.5t-2.5 -8.5l4 -19q2 -9 7 -15.5t13 -6.5q11 0 12 5t-1 15l-5 21q-2 8 -6 8.5l-4 0.5l-1 3h29zM522 174l1 -3h-21l-1 3l4 1t2 9l-6 30l-30 -44l-3 1l-8 45q-2 7 -5.5 8l-3.5 1l-1 3h21l1 -3l-4.5 -1
t-2.5 -8l5 -30l29 42h14l1 -3l-5 -0.5t-3 -8.5l7 -32q2 -8 5.5 -9zM414 171h-32q-13 0 -24 9.5t-11 25.5q0 11 8 16.5t17 5.5h30l1 -3q-11 -1 -8 -10l8 -31q2 -8 6 -8.5l4 -0.5zM306 174l1 -3h-29l-1 3l4.5 0.5t2.5 7.5l-3 15q-4 0 -5 -3l-12 -23h-19l-1 3l5 0.5t9 7.5l9 16
q-8 1 -13.5 5t-5.5 10q0 15 20 15h27l1 -3l-4.5 -0.5t-2.5 -7.5l7 -35q2 -7 6 -7.5zM827 127h-685v6h685v-6zM694 46h-14v2l2.5 1t2.5 4v20l-25 -28h-3v28q0 4 -3 5l-3 1v2h15v-2l-3 -1t-3 -5v-18l24 26h10v-2l-3 -2t-3 -4v-20q0 -3 3 -4l3 -1v-2zM633 48v-2h-30l-2 11l2 1
l2.5 -4.5t7.5 -4.5h4q4 0 4 3v11h-4q-5 0 -5.5 -3l-0.5 -3h-2v13h2l0.5 -2.5t5.5 -2.5h4v10q0 3 -4 3h-4q-5 0 -7 -4l-2 -4l-2 1l2 10h29v-2h-3q-2 0 -2 -5v-21q0 -5 2 -5h3zM583 81v-2l-2.5 -0.5t-4.5 -5.5l-12 -27h-1l-9 16l-8 -16q0 -1 -0.5 -0.5l-0.5 0.5h-1l-13 27
q-2 4 -4 5l-2 1v2h13v-2l-2 -1t0 -5l8 -18l7 13l-3 5q-3 5 -5 5.5l-2 0.5l-1 2h26v-2l-2 -1.5t-4 -4.5l-4 -8l5 -10l9 19q2 3 0 4l-2 1v2h15zM480 79l-2.5 -0.5t-4.5 -4.5l-8 -12v-8q0 -5 2.5 -5.5l2.5 -0.5v-2h-17v2l2.5 0.5t2.5 5.5v8l-8 12q-2 4 -5 4.5l-3 0.5v2h15v-2
l-2.5 -0.5t-0.5 -4.5l6 -9l6 9q2 4 0.5 4.5l-1.5 0.5v2h15v-2zM425 64q0 -8 -5 -13.5t-15 -5.5t-15 5.5t-5 13.5t5 13t15 5t15 -5t5 -13zM364 46h-17v2l2.5 0.5t2.5 4.5v9q-4 0 -7 -4l-7 -12h-11v2l2.5 0.5t5.5 4.5l7 10q-9 4 -9 9q0 9 13 9h18v-2l-2.5 -0.5t-2.5 -5.5v-20
q0 -4 2.5 -4.5l2.5 -0.5v-2zM309 46h-18v2l3 0.5t3 5.5v9q-2 0 -4 -2l-8 -8q-3 -4 -0.5 -4.5l2.5 -0.5v-2h-17v2l2.5 1.5t4.5 3.5l13 13l-10 9q-2 2 -5 3l-3 1v2h14v-2l-1.5 -1t0.5 -3l8 -8q2 -2 4 -2v9q0 4 -3 4.5l-3 0.5v2h18v-2l-3 -0.5t-3 -4.5v-20q0 -4 3 -5l3 -1v-2z
M606 -83q0 -6 -11 -6v13q11 1 11 -7zM525 -82q0 -7 -11 -6v12q11 2 11 -6zM394 -83q0 -6 -11 -6v13q11 1 11 -7zM564 -92h-10l5 12zM800 -88q0 -12 -11 -12t-11 13q0 12 11 12t11 -13zM441 -88q0 -12 -11 -12t-11 13q0 12 11 12t11 -13zM176 548l-3 19q-1 5 -9 5t-8 -9
q0 -5 3.5 -10t11.5 -5h5zM566 553q-2 1 -7 1q-4 0 -4 -3q0 -2 4 -2t7 4zM272 553q-2 1 -7 1q-4 0 -4 -3q0 -2 4 -2t7 4zM684 535q0 16 -8 27.5t-17 11.5q-11 0 -11 -14q0 -15 8 -26.5t17 -11.5q11 0 11 13zM392 384v22h-11q-13 0 -13 -11t13 -11h11zM280 200l-3 19
q-1 5 -9 5t-8 -9q0 -5 3.5 -10t11.5 -5h5zM716 187q0 16 -8 27.5t-17 11.5q-11 0 -11 -14q0 -15 8 -26.5t17 -11.5q11 0 11 13zM393 182l-9 35q-2 5 -2.5 5.5t-3.5 1.5h-6q-14 0 -14 -17q0 -12 7.5 -22t18.5 -10h5q4 0 4 7zM553 79q-5 0 0 -9q4 9 0 9zM352 64v10q0 4 -4 4
q-7 0 -7 -6q0 -8 8 -8h3zM417 64q0 16 -12 16t-12 -16q0 -7 3 -12t9 -5q7 0 9.5 5t2.5 12z" />
    <glyph glyph-name="fi" unicode="&#xfb01;" horiz-adv-x="285" 
d="M151 408v58h-45v94q0 23 9 35.5t29 12.5h14v58h-16q-50 0 -72 -33.5t-22 -98.5v-68h-36v-58h36v-408h61v408h42zM248 532v75h-54v-75h54zM251 0v468h-60v-468h60z" />
    <glyph glyph-name="fl" unicode="&#xfb02;" horiz-adv-x="285" 
d="M151 408v58h-45v94q0 23 9 35.5t29 12.5h14v58h-16q-50 0 -72 -33.5t-22 -98.5v-68h-36v-58h36v-408h61v408h42zM251 0v666h-60v-666h60z" />
    <glyph glyph-name="NUL" horiz-adv-x="1000" 
 />
    </font>
</defs>
</svg>
